/* XPM */
static char *a57ed5b3903d4548c397bb0d96466cadE0IM1n3het4xMyZo[] = {
/* columns rows colors chars-per-pixel */
"32 32 36 1 ",
"  c #4B2A04",
". c #683B10",
"X c #044F26",
"o c #055027",
"O c #135A33",
"+ c #076633",
"@ c #0B6B39",
"# c #156037",
"$ c #136931",
"% c #166C36",
"& c #12603A",
"* c #206335",
"= c #564317",
"- c #504619",
"; c #684313",
": c #6E4011",
"> c #7B512D",
", c #7C552F",
"< c #177849",
"1 c #227543",
"2 c #227744",
"3 c #227A46",
"4 c #9A6A23",
"5 c #9E6D22",
"6 c #986924",
"7 c #936037",
"8 c #C78E1A",
"9 c #CF9817",
"0 c #CC9219",
"q c #CD9718",
"w c #D19B13",
"e c #D19C13",
"r c #D29B16",
"t c #D49F16",
"y c #F4D614",
"u c #F6DA14",
/* pixels */
"................................",
".....+.............+.........7..",
"............+.........++........",
".........+++..7......+<#+.......",
"..7....++<#+.........+<#<+......",
".....++##<<+......7.+<##<+......",
"....+<<<##+.........+<#<<#+.....",
"...+###<<<+.........+<#<##+.....",
"...+<<###+.....+.....++<#<<+....",
"....++<<<+000000000000:++<#+....",
"......+0000,4,,44,,4,0000$++....",
"......0044,,44,44,44,,44,8:.+...",
".....04,,44,64,44,44,44,,60:..+.",
"....0000,,4,69rrrrr5,4,,0000:...",
"....0ee0004,quuuuuut,4,00ee0:...",
"...+0e00w00ruuuuuuuut00e00e0$=..",
"..+<000ee0ruuuuuuuuuut0ee0003+..",
"..+#00ee00rurrryuuuuut00ee00*#+.",
"...+00e000ruuuurryuuut000e002<+.",
"....+000w0ruuuuuuryuut0e0001@@-.",
"......+0e0ruuuuuuuryut0e0%@@--..",
"........000ruuuuuuuut000;---....",
"......>..   ruuuuuut    ........",
"..+.....     rrrrrrX     ..>....",
".......     X&&&OOX       ......",
"......     XOOO&&&X    >   .....",
"...7..  >  X&&OOOX         .....",
".......     XX&&&X        ...+..",
"........      XXX    o   .......",
"......o..               ........",
"..+.......o.         .....>.....",
"................................"
};
