/* XPM */
static char *result[] = {
/* columns rows colors chars-per-pixel */
"32 32 15 1 ",
"  c #030304",
". c #4B2A04",
"X c #683B10",
"o c #044F26",
"O c #055027",
"+ c #076633",
"@ c #156037",
"# c #12603A",
"$ c #7B512D",
"% c #765A2C",
"& c #177849",
"* c #936037",
"= c #E1DE10",
"- c #FBD01D",
"; c #F9EB1B",
/* pixels */
"XXXXXXXXXXXXXXXXXXXXXXXXXXXXXXXX",
"XXXXX+XXXXXXXXXXXXX+XXXXXXXXX*XX",
"XXXXXXXXXXXX+XXXXXXXXX++XXXXXXXX",
"XXXXXXXXX+++XX*XXXXXX+&@+XXXXXXX",
"XX*XXXX++&@+XXXXXXXXX+&@&+XXXXXX",
"XXXXX++@@&&+XXXXXX*X+&@@&+XXXXXX",
"XXXX+&&&@    XXXXXXX+&@&&@+XXXXX",
"XXX+@@@& %%%% XXXXXX+&@&@@+XXXXX",
"XXX+&&@@ =%%% X+XXXXX++&@&&+XXXX",
"XXXX++&& ==  XXXXXXXXXX++&@+XXXX",
"XXXXXX+ ;= XXXXXXXXXXXXXX+++XXXX",
"XXXXXX ;;; XXXXXXXXXXXXXXXXX+XXX",
"XXXXX -;;; XXXXX*XXXXXXXXXXXXX+X",
"XXXX* -;;; XX+XXXXXXXXXXXXXXXXXX",
"XXXX --;;; XXXXXXXXXXXXXXX  XXXX",
"XXX+ --;;;; XXXXXXXXXXXXX ;; XXX",
"XX+& ---;;; XXXXXXXXXXXX ;;- XXX",
"XX+@ ---;;;; XXXXXX*XX  ;;-- XXX",
"XXX+ ----;;; XXXX     ;;;-- XXXX",
"XXXX+ ---;;;;    ;;;;;;;;-- XXXX",
"XXXXX ----;;;;;;;;;;;;;;-- XXXXX",
"XXXXX -----;;;;;;;;;;;;--- XXXXX",
"XXXXXX -----;;;;;;------  XXXXXX",
"XX+XXX --------------   .XX$XXXX",
"XXXXXXX ------------ .....XXXXXX",
"XXXXXX..  -------   ...$...XXXXX",
"XXX*XX..$.       o.........XXXXX",
"XXXXXXX.....oo###o........XXX+XX",
"XXXXXXXX......ooo....O...XXXXXXX",
"XXXXXXOXX...............XXXXXXXX",
"XX+XXXXXXXOX.........XXXXX$XXXXX",
"XXXXXXXXXXXXXXXXXXXXXXXXXXXXXXXX"
};
