/* XPM */
static char *result[] = {
/* columns rows colors chars-per-pixel */
"32 32 130 2 ",
"   c black",
".  c gray4",
"X  c #0E0E0E",
"o  c #1A0F04",
"O  c #141106",
"+  c #1E150D",
"@  c #151514",
"#  c #161515",
"$  c #1C1C1B",
"%  c #1D1D1D",
"&  c #1F1F1E",
"*  c #2E1D0D",
"=  c #341E08",
"-  c #221C16",
";  c #032613",
":  c #052514",
">  c #0F2118",
",  c #07361E",
"<  c #2E200A",
"1  c #292018",
"2  c #372415",
"3  c #3B2A1A",
"4  c #212120",
"5  c gray14",
"6  c #252525",
"7  c #272727",
"8  c gray16",
"9  c #2C2C2C",
"0  c #2D2D2C",
"q  c #2D2D2D",
"w  c #352C24",
"e  c #26332C",
"r  c #30302F",
"t  c #313131",
"y  c #373736",
"u  c gray22",
"i  c #393938",
"p  c #3B3A3A",
"a  c gray23",
"s  c #3C3C3B",
"d  c #3F3F3E",
"f  c #3F3F3F",
"g  c #41250A",
"h  c #4E2C0C",
"j  c #55300D",
"k  c #5B340E",
"l  c #623C11",
"z  c #623E12",
"x  c #683B10",
"c  c #693C12",
"v  c #6B3D12",
"b  c #41362B",
"n  c #3E4E1F",
"m  c #054D26",
"M  c #055027",
"N  c #065329",
"B  c #06592D",
"V  c #3F4F21",
"C  c #076633",
"Z  c #0B6534",
"A  c #086734",
"S  c #0B6937",
"D  c #0B6B39",
"F  c #0E6939",
"G  c #0E6C3C",
"H  c #156037",
"J  c #13623B",
"K  c #156238",
"L  c #16663C",
"P  c #4F4016",
"I  c #504619",
"U  c #6D4117",
"Y  c #73441A",
"T  c #48423D",
"R  c #7B512D",
"E  c #166E41",
"W  c #177245",
"Q  c #177446",
"!  c #177849",
"~  c #414040",
"^  c #444443",
"/  c #474646",
"(  c gray29",
")  c #4C4B4B",
"_  c gray30",
"`  c #4F4F4E",
"'  c #515151",
"]  c #545353",
"[  c #565655",
"{  c #575656",
"}  c #585757",
"|  c #5A5959",
" . c gray36",
".. c #606060",
"X. c #656564",
"o. c #666565",
"O. c #676767",
"+. c #6D6D6C",
"@. c #6D6D6D",
"#. c #6F6E6E",
"$. c #706F6F",
"%. c #727272",
"&. c #757574",
"*. c #767675",
"=. c #797878",
"-. c #7A7A79",
";. c #7B7B7A",
":. c #7D7C7C",
">. c #7E7D7D",
",. c #7E7E7D",
"<. c #936037",
"1. c #858484",
"2. c #868686",
"3. c #878686",
"4. c #8A8989",
"5. c #8C8C8B",
"6. c #8D8C8C",
"7. c #929291",
"8. c #949393",
"9. c #999898",
"0. c #9C9B9B",
"q. c #9D9D9C",
"w. c #A1A1A0",
"e. c #A3A2A2",
"r. c #A4A3A3",
"t. c #A5A5A4",
"y. c #A8A8A7",
"u. c #AEADAD",
"i. c #AFAEAE",
"p. c #B3B2B2",
/* pixels */
"x x x x x x x x x k 3 @.1.[ # 2.0.8.9 ~ p.7 j x x x x x x x x x ",
"x x x x x C I x x = ` t.u.u._ $.1.&.i   u.q.o x x x x x x <.Y x ",
"x x x x x I z x k b =.y.X.` { 5 &.p.>.  y.t.T g x x x x x Y v x ",
"x x x x x x x x h 7 ' | 5 $ ( O./ p.$.{ y.t.,.o x x x x x x x x ",
"x x <.Y x x x B ; X p | O.[ o.r.[ | { t.q.y.2.o x x x x x x x x ",
"x x Y v x C N e 2.r [ 8.p...X / 4 a 5.q.y.i.-.o x x x x x x x x ",
"x x x x C J > ) p.8.%.% q | 2.2.2.r.u.u.i.9. .o C I x x x x x x ",
"x x x C H e 4.d [ q f *.*.5.e.e.e.e.e.e.w.7.] o I z x x x x x x ",
"x x x C ! q p.p.X : t ;.q.q.q.q.q.q.q.q.7.$.1 j x x x x <.Y x x ",
"x x x I D X y y   , u $.$.3.q.q.q.q.7.$.$.$.o x x x x x Y v x x ",
"x x x x I q p.p.y O <     ] $.$.$.$.$.      x x x x x x x x x x ",
"x x x x x h # [ +.4.+ 2 & @ . 4.p.p.q y X m C C I x x x x x x x ",
"x x x x x j w 4.8.:.s 6 6 % ^ [ 0.6 8 y y   H W D C I x x x C I ",
"x x x x <.Y j + 8 r o.5.5.:.5.6.~ . 0 y y   ! ! L H Z C I x I z ",
"x x x x Y v x j o - 8 } } #.} - o o 0 y 8 o D L K ! ! ! D I x x ",
"x x x x x x x x x h = = = = = h x x * $ = x C ! ! ! L H H Z I x ",
"x x x x x x x x x x x x x x x x x x k = x x I D L L K E ! D I x ",
"x x x <.Y x x x C I x x x x <.Y x x x <.Y x z A W W W G D V z x ",
"x x x Y v x x x I z x x x x Y v x x x Y v x z V D D D I I x x x ",
"x x x x x x x x x x x x x x x x x x x x x x x z I I I x x x x x ",
"x x x x x x x x x x x x x x x x x x x x C I x x x x x x x x x x ",
"x x x x x x x x x x x x x x x x x C C C n z x x x x x x x x x x ",
"x x x x x x R U x x x x x x x C C ! H Z I x x x x x x x x x x x ",
"x x C I x x U c x x x x x C C H H ! ! D I x x x x x x R U x x x ",
"x x I z x x x x x x x x C ! ! ! L L F V z x x x x x x U c x x x ",
"x x x x x x x x x x x C H H H ! ! ! D I x x x R U x x x x x x x ",
"x x x <.Y x x x R U x C ! Q H L L F V z x x x U c x x x x x x x ",
"x x x Y v x x x U c x I D D W W W S I x x x x x x x x x x C I x ",
"x x x x x x x x x x x x I I D D D V z x x M P x x x x x x I z x ",
"x x x x x x M P x x x x x x I I I z x x x P l x x x x x x x x x ",
"x x C I x x P l x x M P x x x x x x x x x x x x x x R U x x x x ",
"x x I z x x x x x x P l x x x x x x x x x x x x x x U c x x x x "
};
