/* XPM */
static char *result[] = {
/* columns rows colors chars-per-pixel */
"32 32 135 2 ",
"   c black",
".  c #070707",
"X  c #0E0E0E",
"o  c #1A0F04",
"O  c #141106",
"+  c #1A120A",
"@  c #1E150D",
"#  c #0C1D14",
"$  c #151514",
"%  c #1C1C1B",
"&  c #1D1D1D",
"*  c #1F1F1E",
"=  c #271606",
"-  c #21160B",
";  c #271D09",
":  c #2E1D0D",
">  c #341E08",
",  c #291E16",
"<  c #231E18",
"1  c #1B230E",
"2  c #28230C",
"3  c #36200C",
"4  c #2D241C",
"5  c #3E2917",
"6  c #222121",
"7  c #222222",
"8  c gray14",
"9  c gray16",
"0  c gray17",
"q  c #2D2D2C",
"w  c #2D2D2D",
"e  c #2E2D2D",
"r  c #352C24",
"t  c gray19",
"y  c #373736",
"u  c #3B3A3A",
"i  c gray23",
"p  c #3F3F3E",
"a  c #41250A",
"s  c #4E2C0C",
"d  c #512F0E",
"f  c #55300D",
"g  c #55350F",
"h  c #5B340E",
"j  c #502F10",
"k  c #563313",
"l  c #5F3917",
"z  c #623C11",
"x  c #623E12",
"c  c #603915",
"v  c #683B10",
"b  c #693C12",
"n  c #6B3D12",
"m  c #453424",
"M  c #40382F",
"N  c #3E4E1F",
"B  c #055027",
"V  c #3F4F21",
"C  c #274A37",
"Z  c #076633",
"A  c #0B6534",
"S  c #086734",
"D  c #0B6937",
"F  c #0B6B39",
"G  c #0E6939",
"H  c #0E6C3C",
"J  c #156037",
"K  c #156238",
"L  c #16663C",
"P  c #4F4016",
"I  c #564317",
"U  c #5C4014",
"Y  c #504619",
"T  c #6D4117",
"R  c #73441A",
"E  c #554A3F",
"W  c #6E4829",
"Q  c #166E41",
"!  c #177245",
"~  c #177446",
"^  c #177849",
"/  c #424241",
"(  c #434343",
")  c #444444",
"_  c #474646",
"`  c #484848",
"'  c #4C4B4B",
"]  c #5A5047",
"[  c #5E544C",
"{  c #515150",
"}  c #545353",
"|  c #565655",
" . c #5A5959",
".. c #5B5B5A",
"X. c #5F5E5E",
"o. c #7B5941",
"O. c #66605B",
"+. c #666565",
"@. c #686868",
"#. c #6D6D6C",
"$. c #7D7169",
"%. c #727171",
"&. c #727272",
"*. c #757574",
"=. c #777777",
"-. c gray48",
";. c #7F7F7E",
":. c #936037",
">. c #80634C",
",. c #90694A",
"<. c #9B7455",
"1. c #97745C",
"2. c #A07A5B",
"3. c #858484",
"4. c #868686",
"5. c #8A8989",
"6. c #919090",
"7. c gray57",
"8. c #939292",
"9. c #949393",
"0. c gray58",
"q. c #959595",
"w. c #9C9B9B",
"e. c #B4A090",
"r. c #A3A2A2",
"t. c #ABAAAA",
"y. c #B2B2B2",
"u. c #B3B2B2",
"i. c #F087B6",
"p. c #E697BA",
"a. c #D1B6C2",
"s. c #C1C1C1",
"d. c #C7C6C6",
"f. c gray81",
"g. c gray93",
/* pixels */
"v v v v v v v v v v v v v v v v v v v v v v v v v v v v v v v v ",
"v v v v v Z Y v v v v v v v v v v v v Z Y v v v v v v v v :.R v ",
"v v v v v Y x v v v v v Z Y v v v v v Y x v v v v v v v v R n v ",
"v v v v v v v v v Z Z Z N x :.R v v v v v v v v v v v v v v v v ",
"v v :.R v v v Z Z ^ J A Y v R n v v v v v v v v v v v v v v v v ",
"v v R n v Z Z J J ^ ^ F Y v v v v v :.R v v v v v v v v v v v v ",
"v v v v Z ^ ^ ^ L L G V x v v v v v R n v v v v Z Y v v v v v v ",
"v v v Z J J J ^ ^ ^ F Y v v v v v v v v v v v v Y x v v v v v v ",
"v v v Z ^ ~ J L L G V x v v v Z Y v v v v :.R v v v v v :.R v v ",
"v v v Y F F ! ! ! D Y v v v v Y x v v v I R n v v v v v R n v v ",
"v v v v Y Y F F F V x v v v v v v v v v Z Y v v v v v v v v v v ",
"v v v v v v Y Y Y x v :.R v v v v v v v U Z Z Z Y v v v v v v v ",
"v v v v v v v v v v v R n v v v v v v v v Z J ! F Z Y v v v Z Y ",
"v v v v :.R v v v v v v v v v Z Y v v v v Z ^ ^ L J A Z Y v Y x ",
"v v v v R n v v v v v v v v v Y x v v v v Y F L K ^ ^ ^ F Y v v ",
"v v v v v v v v v v v v v v v v v v v v v v Z ^ ^ ^ L J J A Y v ",
"v v v v v v v v v v v v v v v v v v v v v v Y F L L K Q ^ F Y v ",
"v v v :.R v v v Z Y v v v v :.l s s s W R v x S ! ! ! H F V x v ",
"v v v R n v v v Y x v v v v l 4 w w w 6 d v x V F F F Y Y v v v ",
"v v v v v v v v v v v v v f + { 9.9.9.7.6 s v x Y Y Y v v v v v ",
"v v v v v v v v v v v v s < { *.*.*._ w.4.  v v v v v v v v v v ",
"v v v v v v v v v v v s - ` *.*.*.u.3.+.4.  v v v v v v v v v v ",
"v v v v v > 5 3 > v v > & *.*.*.| *.u.X.( > v s > > > s v v v v ",
"v v Z Y > =.=.=.=.> s - 8  . . .u %  .C 2 v h E =.=.=.] j v v v ",
"v v Y ; y.g.g.g.g.y.< t . * 9 9 9 9 9 # O f M f.g.g.g.f.O.a v v ",
"v v v f i i g.g.g.g.6.0 9 } 8.r.r.r.%.q 9 M s.g.g.g.0.i m h v v ",
"v v v :.k s @.g.g.g.y.% / >.<.e.d.2.,.[ y i g.g.g.s.m s h v v v ",
"v v v R     g.g.g.g.y.% } 1., e ..  o.$.y i g.g.g.g.=.  > Z Y v ",
"v v v o g.g.g.g.  i y.% ;.d.d.;.y d.d.d.y i g.  =.g.g.g.=.2 x v ",
"v v v v     g.  s     % y r.;.X   9 d...y     v > =.=.  > v v v ",
"v v Z Y v v   z v v B 1 % r.d.p.i.a.d...  u.p ' r = 5 T v v v v ",
"v v Y x v v v v v v P g : 7 9 -.q.) 9 $ 5.p #.t.&.@ c b v v v v "
};
