/* XPM */
static char *result[] = {
/* columns rows colors chars-per-pixel */
"32 32 180 2 ",
"   c black",
".  c gray4",
"X  c #0B0B0B",
"o  c #0E0E0E",
"O  c #140B03",
"+  c #1A0F04",
"@  c #021A0D",
"#  c #141106",
"$  c #1B1006",
"%  c #1F140B",
"&  c #151514",
"*  c #151515",
"=  c #1B1510",
"-  c #181818",
";  c #1C1C1B",
":  c #271606",
">  c #2E1A07",
",  c #25180E",
"<  c #2E1D0D",
"1  c #341E08",
"2  c #281D12",
"3  c #032D16",
"4  c #092D1B",
"5  c #28230C",
"6  c #2D2116",
"7  c #29231E",
"8  c #3F2712",
"9  c #33261B",
"0  c #363715",
"q  c #3C3413",
"w  c #3C3B16",
"e  c #301D25",
"r  c #202020",
"t  c gray13",
"y  c #272727",
"u  c gray16",
"i  c #2D2D2C",
"p  c #2D2D2D",
"a  c #352C24",
"s  c #3C222D",
"d  c #33302E",
"f  c #343434",
"g  c #373736",
"h  c #373737",
"j  c #3A3A32",
"k  c #383837",
"l  c gray22",
"z  c #3A3A3A",
"x  c #3B3B3A",
"c  c gray23",
"v  c #3C3C3C",
"b  c #3D3D3C",
"n  c #41250A",
"m  c #4E2C0C",
"M  c #512F0E",
"N  c #55300D",
"B  c #5B340E",
"V  c #4C2E14",
"C  c #45271D",
"Z  c #402F1F",
"A  c #523011",
"S  c #533213",
"D  c #553610",
"F  c #623C11",
"G  c #623E12",
"H  c #683B10",
"J  c #693C12",
"K  c #6B3D12",
"L  c #41362B",
"P  c #5C3C22",
"I  c #5E3F26",
"U  c #3E4E1F",
"Y  c #054D26",
"T  c #0D4429",
"R  c #17412A",
"E  c #104829",
"W  c #055027",
"Q  c #0A572F",
"!  c #145A34",
"~  c #145F37",
"^  c #3F4F21",
"/  c #076633",
"(  c #0B6534",
")  c #086734",
"_  c #0B6937",
"`  c #0B6B39",
"'  c #0E6939",
"]  c #0E6C3C",
"[  c #156037",
"{  c #156238",
"}  c #16663C",
"|  c #4F4016",
" . c #564317",
".. c #5C4014",
"X. c #504619",
"o. c #6D4117",
"O. c #73441A",
"+. c #40403F",
"@. c #6E4829",
"#. c #7B512D",
"$. c #166E41",
"%. c #167144",
"&. c #177245",
"*. c #177446",
"=. c #177849",
"-. c #414140",
";. c #434343",
":. c #444443",
">. c #454544",
",. c #464545",
"<. c #4A4A49",
"1. c #4C4C4B",
"2. c gray30",
"3. c #4E4E4D",
"4. c #4F4F4E",
"5. c #515150",
"6. c #515151",
"7. c #535353",
"8. c #545353",
"9. c gray33",
"0. c #565655",
"q. c gray34",
"w. c #5D5651",
"e. c #585858",
"r. c #595958",
"t. c gray35",
"y. c gray37",
"u. c #5F5F5E",
"i. c #69635D",
"p. c #795263",
"a. c #656564",
"s. c #696968",
"d. c #6A6A6A",
"f. c #6E6E6D",
"g. c gray43",
"h. c #746D68",
"j. c #78726E",
"k. c #727070",
"l. c #727272",
"z. c #757574",
"x. c #777777",
"c. c #797979",
"v. c gray48",
"b. c #7B7B7B",
"n. c gray49",
"m. c #7F7F7E",
"M. c #8A5A34",
"N. c #936037",
"B. c #866D5B",
"V. c #857970",
"C. c #807F7F",
"Z. c #868686",
"A. c #8C8986",
"S. c #898989",
"D. c #939393",
"F. c gray58",
"G. c #959595",
"H. c #969695",
"J. c #979796",
"K. c #9B9B9B",
"L. c gray61",
"P. c #9D9D9C",
"I. c #9E9E9D",
"U. c #AA9C92",
"Y. c #A0A09F",
"T. c #A2A2A2",
"R. c #A3A2A2",
"E. c gray64",
"W. c #A7A7A7",
"Q. c #A8A8A7",
"!. c #A9A9A8",
"~. c #AAAAAA",
"^. c gray68",
"/. c #AFAFAF",
"(. c #B1B1B1",
"). c #B2B2B2",
"_. c gray",
"`. c #C0C0BF",
"'. c #C7C6C6",
"]. c gray93",
/* pixels */
"H H H H H H H H H H H H H H H H H H H H H H H H H H H H H H H H ",
"H H H H H / X.H H H H H H H H H H H H / X.H H H H H H H H N.O.H ",
"H H H H > @ # N H H H H / X.H H H H H X.G H H H H H H H H O.K H ",
"H H H > d t.v.a N / / / U G N.O.H H H H H H H H H H H H H H H H ",
"H H N., z z.).p Y =.[ ( X.H O.K H H H H H H H H H H H H H H H H ",
"      ;.L.z.0.X E =.=.` X.H H H H H N.O.H H H H H H H H H H H H ",
"g.q.q.+.K.).p T ~ } ' ^ G H H H H H O.K H H H H / X.H H H H H H ",
"3.z.).z.3.h R %.=.=.` X.H H H H H H H H H H H H X.G H H H H H H ",
"f.).).t.  4 ! } } ' ^ G H H H / X.H H H H N.O.H H H H H N.O.H H ",
"      5 ` Q c c c c q m m m m 0 D H H H ..O.K H H H H H O.K H H ",
"H H H H w j ].].].].c o o o o o < B H H / X.H H H H H H H H H H ",
"H H H H > A.).].].].].a.g g x >.-.Z B H  ./ / / X.H H H H H H H ",
"H H H H H > + ).].].].].r.g >.h.U.w.1 H H / [ &.` / X.H H H / X.",
"m 1 1 1 @.V 1 x.].].].].`.g 1.B.I 9 2 B H / =.=.} [ ( / X.H X.G ",
"L 9.t.z 6 i.x.].].x._.].`.g >.V.j.2.; m H X.` } { =.=.=.` X.H H ",
"G.T.^.E.y.u.x.].F.o C.!.`.g g m.'.e.o m H H / =.=.=.} [ [ ( X.H ",
"(.!.T./.E.y.u l.k * 8.3.b.g g m.R.p.s m H H X.` } } { $.=.` X.H ",
"^.(.d.s.Q.H.D.n.<.i - g g g g f r e C M.O.H G ) &.&.&.] ` ^ G H ",
"Y.~.L.t t.Q.T.I.P.,.k.        : m m B O.K H G ^ ` ` ` X.X.H H H ",
"^.Q.).p 6.c.5.  v x ,.g u O m B H H H H H H H G X.X.X.H H H H H ",
"^.Y.6.& b :.g u   g 0.).z.t.+ H H H H H / X.H H H H H H H H H H ",
"L.Z.;.& .         7.P.^.J.;.+ H H / / / U G H H H H H H H H H H ",
";.      1 H #.A p ^.).).t.+ H / / =.[ ( X.H H H H H H H H H H H ",
"O N / X.H H S y ^.P.W.Z.;.@ / [ [ =.=.` X.H H H H H H #.o.H H H ",
",.= 0 G H H   P.P.S.c + 3 =.=.=.} } ' ^ G H H H H H H o.J H H H ",
",.,.2 m H H + 4.4.c + / [ [ [ =.=.=.` X.H H H #.o.H H H H H H H ",
"= l 7 P O.n 1 O % $ H / =.*.[ } } ' ^ G H H H o.J H H H H H H H ",
"n + : 8 M > + N o.J H X.` ` &.&.&._ X.H H H H H H H H H H / X.H ",
"H H m 1 m H H H H H H H X.X.` ` ` ^ G H H W | H H H H H H X.G H ",
"H H H H H H W | H H H H H H X.X.X.G H H H | F H H H H H H H H H ",
"H H / X.H H | F H H W | H H H H H H H H H H H H H H #.o.H H H H ",
"H H X.G H H H H H H | F H H H H H H H H H H H H H H o.J H H H H "
};
