/* XPM */
static char *result[] = {
/* columns rows colors chars-per-pixel */
"32 32 80 1 ",
"  c black",
". c gray4",
"X c #0E0E0E",
"o c #1A0F04",
"O c #021A0D",
"+ c #1E150D",
"@ c #151514",
"# c #161515",
"$ c #1C1C1B",
"% c #1D1D1D",
"& c #1F1F1E",
"* c #271606",
"= c #341E08",
"- c #221C16",
"; c #18241D",
": c #06351C",
"> c #28230C",
", c #3E2B1B",
"< c #0C3C25",
"1 c #252525",
"2 c gray16",
"3 c #2D2D2C",
"4 c #2D2D2D",
"5 c #352C24",
"6 c #30302F",
"7 c #373736",
"8 c #3C3C3B",
"9 c #4E2C0C",
"0 c #55300D",
"q c #423814",
"w c #623C11",
"e c #623E12",
"r c #633B15",
"t c #683B10",
"y c #693C12",
"u c #6B3D12",
"i c #3E4E1F",
"p c #054D26",
"a c #055027",
"s c #065329",
"d c #115A37",
"f c #3F4F21",
"g c #076633",
"h c #0B6534",
"j c #086734",
"k c #0B6937",
"l c #0B6B39",
"z c #0E6939",
"x c #0E6C3C",
"c c #156037",
"v c #156238",
"b c #16663C",
"n c #4F4016",
"m c #564317",
"M c #5C4014",
"N c #504619",
"B c #6D4117",
"V c #73441A",
"C c #7B512D",
"Z c #166E41",
"A c #177245",
"S c #177446",
"D c #177849",
"F c #414040",
"G c #444443",
"H c #545353",
"J c #565655",
"K c #585757",
"L c #666565",
"P c #6D6D6C",
"I c #6F6E6E",
"U c #706F6F",
"Y c #7D7C7C",
"T c #936037",
"R c #8A8989",
"E c #8C8C8B",
"W c #8D8C8C",
"Q c #949393",
"! c #9C9B9B",
"~ c #B3B2B2",
/* pixels */
"ttttt4~~7o=  HUUUUU   tttttttttt",
"tttttp#JPR+*&@.R~~47X9tttttttTVt",
"tttttq5RQY811%GJ!1277 tttttttVut",
"tttttt0+26LEEYEWF.377 tttttttttt",
"ttTVtttsO;2KKIK-oo372otttttttttt",
"ttVutggccd<:>==9tt,$=ttttttttttt",
"ttttgDDDbbzfetttttr=ttttgNtttttt",
"tttgcccDDDlNttttttttttttNetttttt",
"tttgDScbbzfetttgNttttTVtttttTVtt",
"tttNllAAAkNttttNetttMVutttttVutt",
"ttttNNlllfetttttttttgNtttttttttt",
"ttttttNNNetTVtttttttmgggNttttttt",
"tttttttttttVuttttttttgcAlgNtttgN",
"ttttTVtttttttttgNttttgDDbchgNtNe",
"ttttVutttttttttNettttNlbvDDDlNtt",
"ttttttttttttttttttttttgDDDbcchNt",
"ttttttttttttttttttttttNlbbvZDlNt",
"tttTVtttgNttttTVtttTVtejAAAxlfet",
"tttVutttNettttVutttVuteflllNNttt",
"ttttttttttttttttttttttteNNNttttt",
"ttttttttttttttttttttgNtttttttttt",
"tttttttttttttttttgggietttttttttt",
"ttttttCBtttttttggDchNttttttttttt",
"ttgNttBytttttggccDDlNttttttCBttt",
"ttNettttttttgDDDbbzfettttttByttt",
"tttttttttttgcccDDDlNtttCBttttttt",
"tttTVtttCBtgDScbbzfetttByttttttt",
"tttVutttBytNllAAAkNttttttttttgNt",
"ttttttttttttNNlllfettanttttttNet",
"ttttttanttttttNNNetttnwttttttttt",
"ttgNttnwttanttttttttttttttCBtttt",
"ttNettttttnwttttttttttttttBytttt"
};
