/* XPM */
static char *result[] = {
/* columns rows colors chars-per-pixel */
"32 32 68 1 ",
"  c black",
". c gray1",
"X c #0E0E0E",
"o c #1A0F04",
"O c #1E150D",
"+ c gray8",
"@ c #181818",
"# c #1C1C1B",
"$ c #211205",
"% c #2E1A07",
"& c #341E08",
"* c #1C2811",
"= c #04331A",
"- c #07321B",
"; c #3E250C",
": c #3B2A1A",
"> c #272727",
", c #2D2D2C",
"< c #2F2F2F",
"1 c #343434",
"2 c #373736",
"3 c #373737",
"4 c #41250A",
"5 c #4E2C0C",
"6 c #55300D",
"7 c #5B340E",
"8 c #553610",
"9 c #623C11",
"0 c #623E12",
"q c #683B10",
"w c #693C12",
"e c #6B3D12",
"r c #3E4E1F",
"t c #055027",
"y c #3F4F21",
"u c #076633",
"i c #0B6534",
"p c #086734",
"a c #0B6937",
"s c #0B6B39",
"d c #0E6939",
"f c #0E6C3C",
"g c #156037",
"h c #156238",
"j c #16663C",
"k c #4F4016",
"l c #564317",
"z c #5C4014",
"x c #504619",
"c c #6D4117",
"v c #73441A",
"b c #6E4829",
"n c #7B512D",
"m c #166E41",
"M c #177245",
"N c #177446",
"B c #177849",
"V c #414040",
"C c #4F4F4E",
"Z c #515150",
"A c #565655",
"S c #6A6A69",
"D c #767675",
"F c #777776",
"G c #936037",
"H c #848483",
"J c #979796",
"K c #9D9D9C",
/* pixels */
"qqqqqqqqqq7:<22<+ZF231AAVoqqqqqq",
"qqqqquxqqqq&#22# HJH.@2,O6qqqGvq",
"qqqqqx0qqqq&#HS# KKK ;XO6qqqqveq",
"qqqqqqqqquu=CKKC& K>qqqqqqqqqqqq",
"qqGvqqquuBg-CKKC&q 5qqqqqqqqqqqq",
"qqvequuggBBs*DC&q b qqqqqqqqqqqq",
"qqqquBBBjjdy8$%7qqveqqqquxqqqqqq",
"qqqugggBBBsx44%4qqqqqqqqx0qqqqqq",
"qqquBNgjjdy0qqquxqqqqGvqqqqqGvqq",
"qqqxssMMMaxqqqqx0qqqlveqqqqqveqq",
"qqqqxxsssy0qqqqqqqqquxqqqqqqqqqq",
"qqqqqqxxx0qGvqqqqqqqzuuuxqqqqqqq",
"qqqqqqqqqqqveqqqqqqqqugMsuxqqqux",
"qqqqGvqqqqqqqqquxqqqquBBjgiuxqx0",
"qqqqveqqqqqqqqqx0qqqqxsjhBBBsxqq",
"qqqqqqqqqqqqqqqqqqqqqquBBBjggixq",
"qqqqqqqqqqqqqqqqqqqqqqxsjjhmBsxq",
"qqqGvqqquxqqqqGvqqqGvq0pMMMfsy0q",
"qqqveqqqx0qqqqveqqqveq0ysssxxqqq",
"qqqqqqqqqqqqqqqqqqqqqqq0xxxqqqqq",
"qqqqqqqqqqqqqqqqqqqquxqqqqqqqqqq",
"qqqqqqqqqqqqqqqqquuur0qqqqqqqqqq",
"qqqqqqncqqqqqqquuBgixqqqqqqqqqqq",
"qquxqqcwqqqqquuggBBsxqqqqqqncqqq",
"qqx0qqqqqqqquBBBjjdy0qqqqqqcwqqq",
"qqqqqqqqqqqugggBBBsxqqqncqqqqqqq",
"qqqGvqqqncquBNgjjdy0qqqcwqqqqqqq",
"qqqveqqqcwqxssMMMaxqqqqqqqqqquxq",
"qqqqqqqqqqqqxxsssy0qqtkqqqqqqx0q",
"qqqqqqtkqqqqqqxxx0qqqk9qqqqqqqqq",
"qquxqqk9qqtkqqqqqqqqqqqqqqncqqqq",
"qqx0qqqqqqk9qqqqqqqqqqqqqqcwqqqq"
};
