/* XPM */
static char *result[] = {
/* columns rows colors chars-per-pixel */
"32 32 170 2 ",
"   c black",
".  c gray4",
"X  c #0E0E0E",
"o  c #140B03",
"O  c #1A0F04",
"+  c #01130A",
"@  c #02140B",
"#  c #021A0D",
"$  c #141106",
"%  c #151514",
"&  c #151515",
"*  c #161616",
"=  c #191315",
"-  c #1C1C1B",
";  c gray11",
":  c #1F1F1E",
">  c #211205",
",  c #271606",
"<  c #2E1A07",
"1  c #341E08",
"2  c #211B16",
"3  c #221C16",
"4  c #1C2811",
"5  c #05321A",
"6  c #2E200A",
"7  c #28230C",
"8  c #3B2109",
"9  c #3D2C1C",
"0  c #222222",
"q  c #252524",
"w  c #262625",
"e  c #282828",
"r  c gray16",
"t  c #2A2A2A",
"y  c #2D2D2C",
"u  c #352C24",
"i  c #342F29",
"p  c #313130",
"a  c #323232",
"s  c #343433",
"d  c gray21",
"f  c #373736",
"g  c #393838",
"h  c #3A3A3A",
"j  c #3B3B3A",
"k  c gray23",
"l  c #3C3C3C",
"z  c #3D3D3C",
"x  c #3E3E3D",
"c  c #41250A",
"v  c #482F0E",
"b  c #4E2C0C",
"n  c #4E330F",
"m  c #55300D",
"M  c #57320F",
"N  c #5B340E",
"B  c #4A301C",
"V  c #593616",
"C  c #62370F",
"Z  c #623C11",
"A  c #623E12",
"S  c #683B10",
"D  c #693C12",
"F  c #6B3D12",
"G  c #663D18",
"H  c #482B2C",
"J  c #453424",
"K  c #473626",
"L  c #41362B",
"P  c #31411C",
"I  c #3E4E1F",
"U  c #054D26",
"Y  c #104829",
"T  c #055027",
"R  c #06592D",
"E  c #3F4F21",
"W  c #076633",
"Q  c #0B6534",
"!  c #0B6937",
"~  c #0B6B39",
"^  c #0E6939",
"/  c #156037",
"(  c #13623B",
")  c #16663C",
"_  c #4F4016",
"`  c #504619",
"'  c #6D4117",
"]  c #73441A",
"[  c #40403F",
"{  c #7B512D",
"}  c #177245",
"|  c #177446",
" . c #177849",
".. c gray25",
"X. c #424241",
"o. c #444443",
"O. c #454544",
"+. c #464545",
"@. c #464646",
"#. c #4A4A49",
"$. c #4B4A4A",
"%. c #4B4B4B",
"&. c #4E4E4D",
"*. c #4F4F4E",
"=. c #415349",
"-. c #41594E",
";. c #515150",
":. c #565655",
">. c gray35",
",. c #5B5B5A",
"<. c #5D5D5D",
"1. c #5A665F",
"2. c #66605B",
"3. c #715D65",
"4. c #626161",
"5. c #626262",
"6. c #636262",
"7. c #646363",
"8. c #646464",
"9. c #656564",
"0. c #6C6661",
"q. c #6B6865",
"w. c #686867",
"e. c #6A6A69",
"r. c #6D6D6C",
"t. c gray43",
"y. c #7B6E65",
"u. c #746D68",
"i. c #767675",
"p. c #777777",
"a. c #797978",
"s. c #7B7B7B",
"d. c #7E7E7D",
"f. c #875C3C",
"g. c #936037",
"h. c #8C725E",
"j. c #864C66",
"k. c #AD937F",
"l. c #818180",
"z. c #848484",
"x. c #868686",
"c. c #8B8B8B",
"v. c #8D8D8D",
"b. c #8E8E8D",
"n. c #919090",
"m. c #939292",
"M. c #939393",
"N. c gray58",
"B. c #989898",
"V. c #9D9D9C",
"C. c #A18F83",
"Z. c #A0A09F",
"A. c #A1A1A0",
"S. c #A2A1A1",
"D. c #A2A2A2",
"F. c #A5A5A4",
"G. c gray65",
"H. c #A7A7A7",
"J. c #A8A8A7",
"K. c #A9A9A8",
"L. c #AAAAAA",
"P. c gray68",
"I. c #AEAEAE",
"U. c #AFAFAF",
"Y. c #B1B1B1",
"T. c #B2B2B2",
"R. c #C7C6C6",
"E. c gray81",
"W. c #DDDDDD",
"Q. c gray93",
/* pixels */
"S S S S S S S S S S S S S S S S S S S S S S S S S S S S S S S S ",
"S S S S S W ` S S S S S S S S S S S S W ` S S S S S S S S g.] S ",
"S S S S S ` A S S S S S W ` S S S S S ` A S S S S < O O m ] F S ",
"S S S S S S S S S W W W I A g.] S S S S S S S S c q.8.>.o m S S ",
"S S g.] S S S W W  ./ Q ` S ] F S S S S S S S S 1 x.z.:.  b S S ",
"S S ] F S W W / /  . .~ ` S S S S S g.] S S S S 1 d @.M.x.      ",
"S S S S W  . . .) ) ^ E A S S S S S ] F S S S S R + x.T.r.r x...",
"S S S W / / /  . . .~ ` S S S S S S S S S S S S ` n u h p T.T.<.",
"S S S W  .| / ) ) ^ E A S S S W ` S S S S g.G b b b N O   T.T.T.",
"S S S ` ~ ~ } } } ! ` S S S S ` v b b b b V K k k k J N ]       ",
"S S S S ` ` ~ ~ ~ E A S S S S b X X X X X q N.Q.Q.Q.N.J C S S S ",
"S S S S S S ` ` ` A S g.] S m a $.O.f f X.K.Q.Q.Q.E.T.2.m S S S ",
"S S S S S S S S S S S ] F S O k.h.u.f &.K.Q.Q.Q.E.1.$ c S S W ` ",
"S S S S g.] S S S S S S S c 3 B f.y.j 9.Q.Q.Q.Q.T.=.5 U 7 1 4 6 ",
"S S S S ] F S S S S S S S O r 7.C.0.f 9.Q.W.m.T.Q.T.p.-.r x.x.i.",
"S S S S S S S S S S S S S O . S.R.,.f 9.Q.n.+.k T.T.p.%.M.T.L.A.",
"S S S S S S S S S S S S S O j.3.R.,.f X.9.x s % a z r a.T.L.Z.I.",
"S S S g.] S S S W ` S S S m H = a [ f f f y 0 f e.P.J.A.D.  x.T.",
"S S S ] F S S S ` A S S S S M b b         g 6.e.V.A.Z.P.  8.H.D.",
"S S S S S S S S S S S S S S S S S b 8 X f x X.o.e e ;.b.  x.T.D.",
"S S S S S S S S S S S S S S S S S S   Y.w.B.#.- X 0 r l w   d.G.",
"S S S S S S S S S S S S S S S S S W   c.V.J.l.*         :   8.x.",
"S S S S S S { ' S S S S S S S W W  .Y   T.T.U.v.9 N S S         ",
"S S W ` S S ' D S S S S S W W / /  .( @ >.t.F.Z.s.L b { ' S S , ",
"S S ` A S S S S S S S S W  . . .) ) ^ P O 2 5.V.V.*.1 ' D S 1 ; ",
"S S S S S S S S S S S W / / /  . . .~ ` S c 2 *.*.i c S S 1 & 4.",
"S S S g.] S S S { ' S W  .| / ) ) ^ E A S S c O O > 1 b S O t t ",
"S S S ] F S S S ' D S ` ~ ~ } } } ! ` S S S S S S c 1 b O # , 1 ",
"S S S S S S S S S S S S ` ` ~ ~ ~ E A S S T _ S S S S S 1 1 N S ",
"S S S S S S T _ S S S S S S ` ` ` A S S S _ Z S S S S S S S S S ",
"S S W ` S S _ Z S S T _ S S S S S S S S S S S S S S { ' S S S S ",
"S S ` A S S S S S S _ Z S S S S S S S S S S S S S S ' D S S S S "
};
