/* XPM */
static char *result[] = {
/* columns rows colors chars-per-pixel */
"32 32 83 1 ",
"  c black",
". c gray1",
"X c #0E0E0E",
"o c gray6",
"O c #1A0F04",
"+ c #1E150D",
"@ c #161515",
"# c #1C1C1B",
"$ c #1D1D1D",
"% c #271606",
"& c #25180E",
"* c #341E08",
"= c #221C16",
"- c #281D12",
"; c #1B230E",
": c #05321A",
"> c #04331A",
", c #28230C",
"< c #372E1E",
"1 c gray16",
"2 c #2A2A2A",
"3 c #2C2C2C",
"4 c #2D2D2C",
"5 c #2D2D2D",
"6 c #30302F",
"7 c #343333",
"8 c #373736",
"9 c gray23",
"0 c #41250A",
"q c #4E2C0C",
"w c #55300D",
"e c #5B340E",
"r c #423914",
"t c #623C11",
"y c #623E12",
"u c #683B10",
"i c #693C12",
"p c #6B3D12",
"a c #453424",
"s c #40382F",
"d c #3E4E1F",
"f c #055027",
"g c #3F4F21",
"h c #076030",
"j c #076633",
"k c #0B6534",
"l c #086734",
"z c #0B6937",
"x c #0B6B39",
"c c #0E6939",
"v c #0E6C3C",
"b c #156037",
"n c #156238",
"m c #16663C",
"M c #4F4016",
"N c #564317",
"B c #5C4014",
"V c #504619",
"C c #6D4117",
"Z c #73441A",
"A c #554A3F",
"S c #7B512D",
"D c #166E41",
"F c #177245",
"G c #177446",
"H c #177849",
"J c #424241",
"K c #50504F",
"L c #575756",
"P c #66605B",
"I c #626161",
"U c #656564",
"Y c #686868",
"T c #6C6C6B",
"R c #706F6F",
"E c #777777",
"W c #936037",
"Q c gray58",
"! c #B2B2B2",
"~ c #B3B2B2",
"^ c #C1C1C1",
"/ c gray81",
"( c gray93",
/* pixels */
"uuuuuuuuuuuuuuuuuuuuuuuuuuuuuuuu",
"uuuuujVuuuuuuuuuuuujVuuuuuuuuWZu",
"uuuuuVyuuuuujVuuuuuVyuuuuuuuuZpu",
"uuuuuuuuujjjdyWZuuuuuuuuuuuuuuuu",
"uuWZuuujjHbkVuZpuuuuuuuuuuuuuuuu",
"uuZpujjbbHHxVuuuuuWZuuuuuuuuuuuu",
"uuuujHHHmmcgyuuuuuZpuuuujVuuuuuu",
"uuujbbbHHHxVuuuuuuuuuuuuVyuuuuuu",
"uuujHGbmmcgyuuujVuuuuWZuuuuuWZuu",
"uuuVxxFFFzVuuuuVyuuuBZpuuuuuZpuu",
"uuuuVVxxxgyuuuuuuuuujVuuuuuuuuuu",
"uuuuuuVVVyuWZuuuuuuuNjjjVuuuuuuu",
"uuuuuuuuuuuZpuuuuuuuujbFxjVuuujV",
"uuuuWZuuuuuuuuujVuuuujHHmbkjVuVy",
"uuuuZpuuuuuuuuuVyuuuuVxmnHHHxVuu",
"uuuuuuuuuuuuuuuuuuuuuujHHHmbbkVu",
"uuuuuuuuuuuuuuuuuuuuuuVxmmnDHxVu",
"uuuWZuuujVuuuuWZuuuWZuylFFFvxgyu",
"uuuZpuuuVyuuuuZpuuuZpuygxxxVVuuu",
"uuuuuuuuuuuuuuuuuuuuuuuyVVVuuuuu",
"uuuuu****uuuuuuuuuuujVuq***quuuu",
"uuuu*EEEE0uuu0***>>jdyqAEEEAquuu",
"uuu*E((((P0q*=#####:,eA!(((!Aeuu",
"uuj,EQ(((/P-#688888##a!(((!EAeuu",
"uuVy*aQ(((!#88LIIIJ889(((!A*quuu",
"uuuuOs^(((!#8LTRRRU889(((/PO0uuu",
"uuu&!^((9Q!#8IRRRRR889^9Q(/!Pwuu",
"uuuq9Y(9qa3#8JURRRK88osqa^Q9ahVu",
"uuuuuq uuuu*18888888 fMuuO*uuVyu",
"uuuuuufMuu*OO1888885~ tuuuuuuuuu",
"uujVuuMtuuf;%+X.  7~~ uuuuSCuuuu",
"uuVyuuuuuur<$443552@5quuuuCiuuuu"
};
