/* XPM */
static char *result[] = {
/* columns rows colors chars-per-pixel */
"32 32 82 1 ",
"  c black",
". c gray1",
"X c #0B0B0B",
"o c #0E0E0E",
"O c #140B03",
"+ c #1A0F04",
"@ c #021A0D",
"# c #05180E",
"$ c #061E12",
"% c #111111",
"& c #1C1C1B",
"* c #2E1A07",
"= c #341E08",
"- c #0D3E24",
"; c #2C2C2C",
": c #2D2D2D",
"> c #373736",
", c gray22",
"< c #3F3F3E",
"1 c #55300D",
"2 c #623C11",
"3 c #623E12",
"4 c #683B10",
"5 c #693C12",
"6 c #6B3D12",
"7 c #3E4E1F",
"8 c #054D26",
"9 c #055027",
"0 c #115A37",
"q c #3F4F21",
"w c #076633",
"e c #0B6534",
"r c #086734",
"t c #0B6937",
"y c #0B6B39",
"u c #0E6939",
"i c #156037",
"p c #16663C",
"a c #4F4016",
"s c #564317",
"d c #5C4014",
"f c #504619",
"g c #6D4117",
"h c #73441A",
"j c #7B512D",
"k c #177245",
"l c #177446",
"z c #177849",
"x c gray25",
"c c #414040",
"v c #434343",
"b c #474646",
"n c #464F4A",
"m c #515151",
"M c #545353",
"N c #565655",
"B c gray35",
"V c #5E5D5D",
"C c #646464",
"Z c DimGray",
"A c #6D6D6C",
"S c #6F6E6E",
"D c #706F6F",
"F c #757574",
"G c #7A7A79",
"H c #936037",
"J c #818080",
"K c #858484",
"L c #868686",
"P c #8C8C8B",
"I c #949393",
"U c #9B9B9B",
"Y c gray61",
"T c #9E9E9D",
"R c #A0A09F",
"E c #A2A2A2",
"W c gray65",
"Q c #A8A8A7",
"! c #AAAAAA",
"~ c gray68",
"^ c #B2B2B2",
"/ c #B3B2B2",
/* pixels */
"44444444444444444444444444444444",
"44444wf444444444444wf44444444Hh4",
"44444f344444wf44444f344444444h64",
"444444444www73Hh4444444444444444",
"44Hh444wwzief4h64444444444441++*",
"44h64wwiizzyf44444Hh4444444  xLv",
"4444wzzzppuq344444h64444wf CL<AY",
"444wiiizzzyf444444444444f >>/^NU",
"444wzlippuq3444wf4444Hh4+//N>^X;",
"444fyykkktf4444f3444dh6+c<//b 4=",
"4444ffyyyq3444444444wf4+LA<I.444",
"444444fff34Hh4444444sww@SIANX444",
"44444444444h644444444wi#c<I/X4wf",
"4444Hh444444444wf4444wz$LKbI%=f3",
"4444h6444444444f34444fy-n/KFV:==",
"4444444444444444444444wz$FFFZ:GL",
"4444444444444444444444fy-&>>&BR~",
"444Hh444wf4444Hh444Hh43rk0oom^~E",
"444h6444f34444h6444h643qyy8 TW^~",
"444444444444444444444443fff ^TW^",
"44444444444444444444wf44444 JDT!",
"44444444444444444www7344444 DDDQ",
"444444jg4444444wwzief444444 MDDP",
"44wf44g544444wwiizzyf444444j DD,",
"44f344444444wzzzppuq3444444gO,,D",
"44444444444wiiizzzyf444jg4441+O,",
"444Hh444jg4wzlippuq3444g5444441+",
"444h6444g54fyykkktf4444444444wf4",
"444444444444ffyyyq3449a444444f34",
"4444449a444444fff3444a2444444444",
"44wf44a2449a44444444444444jg4444",
"44f3444444a244444444444444g54444"
};
