/* XPM */
static char *result[] = {
/* columns rows colors chars-per-pixel */
"32 32 102 2 ",
"   c black",
".  c #0E0E0E",
"X  c #1A0F04",
"o  c #151514",
"O  c #1C1C1B",
"+  c gray11",
"@  c #1F1F1E",
"#  c #271606",
"$  c #2E1A07",
"%  c #21160B",
"&  c #2E1D0D",
"*  c #341E08",
"=  c #231F1D",
"-  c #0F2E1E",
";  c #04331A",
":  c #3C3413",
">  c #0C3C25",
",  c #222222",
"<  c #2A2A2A",
"1  c gray17",
"2  c #3A342F",
"3  c gray20",
"4  c #373736",
"5  c gray22",
"6  c #3B3A3A",
"7  c #4E2C0C",
"8  c #5B340E",
"9  c #623C11",
"0  c #623E12",
"q  c #683B10",
"w  c #693C12",
"e  c #6B3D12",
"r  c #473B31",
"t  c #3E4E1F",
"y  c #054D26",
"u  c #055027",
"i  c #3F4F21",
"p  c #076633",
"a  c #0C6336",
"s  c #0B6534",
"d  c #086734",
"f  c #0B6937",
"g  c #0B6B39",
"h  c #0E6939",
"j  c #0E6C3C",
"k  c #156037",
"l  c #156238",
"z  c #16663C",
"x  c #4F4016",
"c  c #564317",
"v  c #5C4014",
"b  c #504619",
"n  c #6D4117",
"m  c #73441A",
"M  c #7B512D",
"N  c #166E41",
"B  c #177245",
"V  c #177446",
"C  c #177849",
"Z  c gray25",
"A  c #414141",
"S  c #424241",
"D  c #434343",
"F  c #474646",
"G  c gray29",
"H  c #4E4E4D",
"J  c #4F4F4E",
"K  c #515151",
"L  c #565655",
"P  c gray35",
"I  c #5A5959",
"U  c gray37",
"Y  c #606060",
"T  c #626161",
"R  c #656565",
"E  c #666565",
"W  c #676767",
"Q  c #6D6D6C",
"!  c #6E6E6D",
"~  c gray43",
"^  c #706F6F",
"/  c #757574",
"(  c #787777",
")  c #7B7B7B",
"_  c #936037",
"`  c #818080",
"'  c #858484",
"]  c #868686",
"[  c #898988",
"{  c #8C8C8B",
"}  c #929291",
"|  c #949393",
" . c #989898",
".. c #9C9B9B",
"X. c #9F9F9F",
"o. c #A1A1A0",
"O. c #A2A2A2",
"+. c #A4A3A3",
"@. c #A8A8A7",
"#. c #AEAEAE",
"$. c #B2B2B2",
"%. c #B3B2B2",
/* pixels */
"q q q q q q q q q q q q q q q q q q q q q q q q q q q q q q q q ",
"q q q q q p b q q q q q q q q q q q q p b q q q q q q q q _ m q ",
"q q q q q b 0 q q q q q p b q q q q q b 0 q q q q q q q q m e q ",
"q q q q q q q q q p p p t 0 _ m q q q q q q q q q q q q q q q q ",
"7     X q q q p p C k s b q m e q q q q q q q q q q q q q q q q ",
"  ] ~ o   ; p k k C C g b q q q q q _ m q q q q q q q q q q q q ",
"] $.H U ] D > C z z h i 0 q q q q q m e q q q q p b q q q q q q ",
"Q $.! %.| 4 O > C C g b q q q q q q q q q q q q b 0 q q q q q q ",
"@   P / F ' %.Y - a i 0 q q q p b q q q q _ m q q q q q _ m q q ",
"  q * o ! +.E H 1 y b q q q q b 0 q q q v m e q q q q q m e q q ",
"q q q * G E H ..I : 0 q q q q q q q q q p b q q q q q q q q q q ",
"q q q * 1 L { | G 7 q _ m q q q q q q q c p p p b q q q q q q q ",
"q q q * I +.E E 6 7 q m e q q q q q q q q p k B g p b q q q p b ",
"q q 7 % A L E +.I 7 q q q q q p b q q q q p C C z k s p b q b 0 ",
"X X 2 W / / +.] r 8 q q q q q b 0 q q q q b g z l C C C g b q q ",
"] ] K A R / / 6 * q q q q q q q q q q q q q p C C C z k k s b q ",
"$.@.) 3 , 4 , & 8 q q q q q q q q q q q q q b g z z l N C g b q ",
"O.O.$. .S . & 8 p b q q q q _ m q q q _ m q 0 d B B B j g i 0 q ",
"O.$.#.o.J # 8 q b 0 q q q q m e q q q m e q 0 i g g g b b q q q ",
"$.$.o.@.P * q q q q q q q q q q q q q q q q q 0 b b b q q q q q ",
"$.X.` ( Z * q q q q q q q q q q q q q q p b q q q q q q q q q q ",
"$.} ^ ^ 5 * q q q q q q q q q q q p p p t 0 q q q q q q q q q q ",
"] [ ^ T < * M n q q q q q q q p p C k s b q q q q q q q q q q q ",
"+ ^ ^ 5 X q n w q q q q q p p k k C C g b q q q q q q M n q q q ",
"^ T 5 = $ q q q q q q q p C C C z z h i 0 q q q q q q n w q q q ",
"5 < X $ q q q q q q q p k k k C C C g b q q q M n q q q q q q q ",
"X X q _ m q q q M n q p C V k z z h i 0 q q q n w q q q q q q q ",
"q q q m e q q q n w q b g g B B B f b q q q q q q q q q q p b q ",
"q q q q q q q q q q q q b b g g g i 0 q q u x q q q q q q b 0 q ",
"q q q q q q u x q q q q q q b b b 0 q q q x 9 q q q q q q q q q ",
"q q p b q q x 9 q q u x q q q q q q q q q q q q q q M n q q q q ",
"q q b 0 q q q q q q x 9 q q q q q q q q q q q q q q n w q q q q "
};
