/* XPM */
static char *result[] = {
/* columns rows colors chars-per-pixel */
"32 32 145 2 ",
"   c black",
".  c #070707",
"X  c gray4",
"o  c #0E0E0E",
"O  c #1A0F04",
"+  c #04170E",
"@  c #021A0D",
"#  c #1D1106",
"$  c #1B1B1A",
"%  c #1C1C1B",
"&  c #1D1D1D",
"*  c #1F1F1E",
"=  c gray12",
"-  c #2E1A07",
";  c #25180E",
":  c #341E08",
">  c #281D12",
",  c #231E18",
"<  c #082415",
"1  c #04331A",
"2  c #0B301C",
"3  c #04391D",
"4  c #28230C",
"5  c #25231F",
"6  c #3C3413",
"7  c #2D1922",
"8  c #0C3C25",
"9  c #222222",
"0  c #272727",
"q  c gray16",
"w  c #2A2A29",
"e  c #282E2A",
"r  c #2D2D2C",
"t  c #2D2D2D",
"y  c #33302E",
"u  c #343434",
"i  c #373736",
"p  c gray22",
"a  c gray23",
"s  c #3F3F3E",
"d  c #41250A",
"f  c #44270C",
"g  c #4E2C0C",
"h  c #55300D",
"j  c #5B340E",
"k  c #4C2E14",
"l  c #62370F",
"z  c #623C11",
"x  c #623E12",
"c  c #683B10",
"v  c #693C12",
"b  c #6B3D12",
"n  c #453424",
"m  c #523B2B",
"M  c #3D471C",
"N  c #3E4E1F",
"B  c #084B27",
"V  c #055027",
"C  c #11502E",
"Z  c #3F4F21",
"A  c #076633",
"S  c #0B6534",
"D  c #0B6937",
"F  c #0B6B39",
"G  c #0E6939",
"H  c #156037",
"J  c #16663C",
"K  c #4F4016",
"L  c #504619",
"P  c #6D4117",
"I  c #73441A",
"U  c #40403F",
"Y  c #6E4829",
"T  c #7B512D",
"R  c #177245",
"E  c #177446",
"W  c #177849",
"Q  c #424241",
"!  c #434342",
"~  c #444443",
"^  c #454544",
"/  c #494949",
"(  c #4A4A49",
")  c #4B4B4B",
"_  c #4E4E4D",
"`  c #4F4F4E",
"'  c #504A45",
"]  c #515150",
"[  c #525251",
"{  c #565655",
"}  c #585757",
"|  c #585858",
" . c #595958",
".. c gray35",
"X. c #5B5B5A",
"o. c #5D5D5C",
"O. c #6E4758",
"+. c #66605B",
"@. c #626161",
"#. c gray39",
"$. c #656564",
"%. c #6B6560",
"&. c #6F6268",
"*. c gray42",
"=. c #6D6D6D",
"-. c #6F6F6F",
";. c #796B61",
":. c #7D7169",
">. c #727272",
",. c #767370",
"<. c gray46",
"1. c #767675",
"2. c #777777",
"3. c gray48",
"4. c #7E7E7D",
"5. c #7F7E7E",
"6. c #936037",
"7. c #8C5067",
"8. c #80807F",
"9. c #848483",
"0. c #898989",
"q. c #8B8B8A",
"w. c #939292",
"e. c #939393",
"r. c gray58",
"t. c #969695",
"y. c gray61",
"u. c #9D9D9C",
"i. c #A0A09F",
"p. c #A1A1A0",
"a. c #A2A2A2",
"s. c #A5A5A4",
"d. c #A8A8A7",
"f. c #A9A9A8",
"g. c gray68",
"h. c #AEAEAE",
"j. c #AFAFAF",
"k. c #B2B2B2",
"l. c #BEBDBD",
"z. c #C0C0BF",
"x. c #C1C1C1",
"c. c #C7C6C6",
"v. c #CBCBCB",
"b. c gray81",
"n. c gray93",
/* pixels */
"c c c c c c c c c c c c c c c c c c c c c c c c c c c c c c c c ",
"c c c c c A L c c c c c c c c c c c c A L c c c c c c c c 6.I c ",
"c c c c c L x c c c c c A L c c c c c L x c c c c c c c c I b c ",
"c c c c c c c c c A A A N x 6.I c c c c c c c c c c c c c c g g ",
"c c 6.I c c c A A W H S L c I b c c c c c c c c c c c c c h     ",
"c c I b c A A H H W W F L c c c c c 6.I c c c c c c c c d , u k.",
"c c c c A W W W J J G Z x c c c c c I b c c c c A L c c O ..{ k.",
"c c c A H H H W W W F L c c c c c c c c c c c c L x c c - y U e.",
"c c c A W E H J J G Z x c c c A L c c c c 6.I c g : : : Y k X o ",
"c c c L F F R R R D L c c c c L x c - O O ; # O +.k.k.k.%.f : : ",
"c c c c L L F F F Z x c c c c c c - 5 q q q q ) b.n.n.n.b.+.h c ",
"c c c c c c L L L x c 6.I c c c - ,.5.@.i i  .v.n.n.n.r.a n l c ",
"c c c c c c c c c c c I b c c c O Y 6.;.i $.n.n.n.n.x.n g j A L ",
"c c c c 6.I c c c c c c c c c 1 q o m :.^ $.n.n.n.n.n.2.  : o t ",
"c c c c I b c c c c c c c c c 4 * w.c.X.i $.n.n.p 2.n.n.n.>.{ k.",
"c c c c c c c c c c c c c c c : 7 &.l.X.i  .z.Q / . #.#.o ~ k.k.",
"c c c c c c c c c c c c c c c d 7.O.3.[ i i i i q q ( *.-.y.g.p.",
"c c c 6.I c c c A L c c c c 6.I - O O % % % % w s ] 9.f.s.s.i.8.",
"c c c I b c c c L x c c c c I b c c c O O . % t } ! $.t.9.a.9.=.",
"c c c c c c c c c c c c c c c c c c c O O 0._ e.i % & { i o.$ d.",
"c c c c c c c c c c c c c c c c c - O | 1.h.q.k.<.% 9 q % % r 0 ",
"c c c c c c c c c c c c c c c c - e ` 0.g.j.d.k.' > % > : : %   ",
"c c c c c c T P c c c c c c c A @ ` u.    4.k.t h j g j c c g g ",
"c c A L c c P v c c c c c A A 2 < +   3 6 = t g c c c T P c c c ",
"c c L x c c c c c c c c A W W 8 2 C B M x g g c c c c P v c c c ",
"c c c c c c c c c c c A H H H W W W F L c c c T P c c c c c c c ",
"c c c 6.I c c c T P c A W E H J J G Z x c c c P v c c c c c c c ",
"c c c I b c c c P v c L F F R R R D L c c c c c c c c c c A L c ",
"c c c c c c c c c c c c L L F F F Z x c c V K c c c c c c L x c ",
"c c c c c c V K c c c c c c L L L x c c c K z c c c c c c c c c ",
"c c A L c c K z c c V K c c c c c c c c c c c c c c T P c c c c ",
"c c L x c c c c c c K z c c c c c c c c c c c c c c P v c c c c "
};
