/* XPM */
static char *result[] = {
/* columns rows colors chars-per-pixel */
"32 32 132 2 ",
"   c black",
".  c #0D0702",
"X  c #0E0E0E",
"o  c #140B03",
"O  c #1A0F04",
"+  c #1F140B",
"@  c #151E0D",
"#  c #151514",
"$  c #151515",
"%  c #161515",
"&  c #1C1C1B",
"*  c gray11",
"=  c #271606",
"-  c #341E08",
";  c #221C16",
":  c #1C2513",
">  c #102319",
",  c #10271A",
"<  c #13261B",
"1  c #04331A",
"2  c #28230C",
"3  c #29231E",
"4  c #372415",
"5  c #30251A",
"6  c gray13",
"7  c #252525",
"8  c #272727",
"9  c #282828",
"0  c gray16",
"q  c #2A2A2A",
"w  c gray17",
"e  c #2D2D2D",
"r  c #30302F",
"t  c #323231",
"y  c #373736",
"u  c gray22",
"i  c #3F3E3E",
"p  c #41250A",
"a  c #4E2C0C",
"s  c #55300D",
"d  c #563313",
"f  c #553610",
"g  c #623C11",
"h  c #623E12",
"j  c #683B10",
"k  c #693C12",
"l  c #6B3D12",
"z  c #3E4E1F",
"x  c #044020",
"c  c #054D26",
"v  c #074F29",
"b  c #104829",
"n  c #104E2E",
"m  c #055027",
"M  c #06592D",
"N  c #085C2F",
"B  c #3F4F21",
"V  c #334B3F",
"C  c #076030",
"Z  c #076633",
"A  c #0B6534",
"S  c #086734",
"D  c #0B6937",
"F  c #0B6B39",
"G  c #0E6939",
"H  c #0E6C3C",
"J  c #156037",
"K  c #156238",
"L  c #16663C",
"P  c #4F4016",
"I  c #564317",
"U  c #5C4014",
"Y  c #504619",
"T  c #6D4117",
"R  c #73441A",
"E  c #6E4829",
"W  c #7B512D",
"Q  c #166E41",
"!  c #177245",
"~  c #177446",
"^  c #177849",
"/  c #464646",
"(  c #474646",
")  c #484848",
"_  c gray29",
"`  c #4E4E4D",
"'  c #4F4F4E",
"]  c #545353",
"[  c #545453",
"{  c gray33",
"}  c #565655",
"|  c #565656",
" . c #585757",
".. c #5A5959",
"X. c #5B5A5A",
"o. c #626161",
"O. c #666565",
"+. c #676767",
"@. c gray43",
"#. c #706F6F",
"$. c #767575",
"%. c #7C7C7C",
"&. c #7D7C7C",
"*. c #936037",
"=. c #848484",
"-. c #858484",
";. c #868686",
":. c #8B8B8B",
">. c #8C8C8B",
",. c gray55",
"<. c gray57",
"1. c #939393",
"2. c #949393",
"3. c #9B9B9B",
"4. c gray61",
"5. c #9E9E9D",
"6. c #A0A09F",
"7. c #A2A2A2",
"8. c gray64",
"9. c #A4A3A3",
"0. c #A4A4A3",
"q. c #A5A5A4",
"w. c gray65",
"e. c #A8A8A7",
"r. c #A9A9A8",
"t. c #AAAAAA",
"y. c #ABAAAA",
"u. c gray68",
"i. c #AEAEAE",
"p. c #B1B1B1",
"a. c #B2B2B2",
"s. c #B3B2B2",
/* pixels */
"j j j j j j j j j j j j j j j j j j j j j j j j j j j j j j j j ",
"j j j j j Z Y j j j j j j j j j j j j Z Y j j j j j j j j *.R j ",
"j j j j j Y h j j j j j Z Y j j j j j Y h j j j j j j j j R l j ",
"a a a a a s j j j Z Z Z z h *.R j j j j j j j j j j j j j j j j ",
"          o a M Z ^ J A Y j R l j j j j j j j j j j j j j j j j ",
"3./ =.t.%.t e > b ^ ^ F Y j j j j j *.R j j j j j j j j j j j j ",
"=.` 3.1.} 2.2.t < n G B h j j j j j R l j j j j Z Y j j j j j j ",
"4.& w _ +.8.} O.+.V N Y j j j j j j j j j j j j Y h j j j j j j ",
"6 - - 1 V  .} 9.2.) : f j j j Z Y j j j j *.R j j j j j *.R j j ",
"- j j Y v , +.2.} &.7 a j j j Y h j j j I R l j j j j j R l j j ",
"j j j j Y 2 w ( &.y.e a j j j j j j j j Z Y j j j j j j j j j j ",
"j j j j j - _ 2.&.} % E R j j j j j j j U Z Z Z Y j j j j j j j ",
"j j j j j - ..-.( 2.e d l j j j j j j j j Z J ! F Z Y j j j Z Y ",
"e 8 a a 4 # r y 2.s.e a j j j Z Y j j j j Z ^ ^ L J A Z Y j Y h ",
"a.5.e w | ,.8.s.s...a j j j j Y h j j j j Y F L K ^ ^ ^ F Y j j ",
"0.w.a.u.' # r y r ; s j j j j j j j j j j j Z ^ ^ ^ L J J A Y j ",
"t.a.u.7.u.@.9 0 ; p j j j j j j j j j j j j Y F L L K Q ^ F Y j ",
"a.u.6.u.p.r.' . x Y j j j j *.R j j j *.R j h S ! ! ! H F B h j ",
"a.6.t.p.r.7.{ - Y h j j j j R l j j j R l j h B F F F Y Y j j j ",
"e.7.a.q.>.[ 5 a j j j j j j j j j j j j j j j h Y Y Y j j j j j ",
":.i.a.>.$.u - j j j j j j j j j j j j j Z Y j j j j j j j j j j ",
";.a.<.$.#.] 3 p j j j j j j j j j Z Z Z z h j j j j j j j j j j ",
"      * #.#.o.$ - j j j j j j Z Z ^ J A Y j j j j j j j j j j j ",
"a a c @ * #.#.X.$ - j j j Z Z J J ^ ^ F Y j j j j j j W T j j j ",
"j j Y f =     q i X a j Z ^ ^ ^ L L G B h j j j j j j T k j j j ",
"j j j j j j j O   = a C J J J ^ ^ ^ F Y j j j W T j j j j j j j ",
"j j j *.R j j j W +   c ^ ~ J L L G B h j j j T k j j j j j j j ",
"j j j R l j j j T k j Y F F ! ! ! D Y j j j j j j j j j j Z Y j ",
"j j j j j j j j j j j j Y Y F F F B h j j m P j j j j j j Y h j ",
"j j j j j j m P j j j j j j Y Y Y h j j j P g j j j j j j j j j ",
"j j Z Y j j P g j j m P j j j j j j j j j j j j j j W T j j j j ",
"j j Y h j j j j j j P g j j j j j j j j j j j j j j T k j j j j "
};
