/* XPM */
static char *result[] = {
/* columns rows colors chars-per-pixel */
"32 32 166 2 ",
"   c black",
".  c #070707",
"X  c #0E0E0E",
"o  c #1A0F04",
"O  c #1D1106",
"+  c #1A120A",
"@  c #1E150D",
"#  c #111111",
"$  c #151514",
"%  c #181818",
"&  c #1C1C1B",
"*  c gray11",
"=  c #1D1D1D",
"-  c #1F1F1E",
";  c #271606",
":  c #21160B",
">  c #341E08",
",  c #261C14",
"<  c #291E16",
"1  c #231E18",
"2  c #032814",
"3  c #0F2B1B",
"4  c #0B321D",
"5  c #28200B",
"6  c #28230C",
"7  c #39220D",
"8  c #2A2119",
"9  c #382311",
"0  c #3E2917",
"q  c #0B3620",
"w  c #163A27",
"e  c #222121",
"r  c #222222",
"t  c gray14",
"y  c #252525",
"u  c gray16",
"i  c #2A2929",
"p  c gray17",
"a  c #2D2D2C",
"s  c #2D2D2D",
"d  c #2E2D2D",
"f  c #352C24",
"g  c gray19",
"h  c #323231",
"j  c #333332",
"k  c #353535",
"l  c #363635",
"z  c #373736",
"x  c #383737",
"c  c #3B3A3A",
"v  c gray23",
"b  c #3E3E3D",
"n  c #3F3E3E",
"m  c #3F3F3E",
"M  c #41250A",
"N  c #4E2C0C",
"B  c #55300D",
"V  c #5B340E",
"C  c #502F10",
"Z  c #623C11",
"A  c #623E12",
"S  c #683B10",
"D  c #693C12",
"F  c #6B3D12",
"G  c #453424",
"H  c #40382F",
"J  c #3E4E1F",
"K  c #054D26",
"L  c #055027",
"P  c #09512C",
"I  c #06592D",
"U  c #115331",
"Y  c #3F4F21",
"T  c #076633",
"R  c #0B6534",
"E  c #0B6937",
"W  c #0B6B39",
"Q  c #0E6939",
"!  c #156037",
"~  c #156238",
"^  c #16663C",
"/  c #4F4016",
"(  c #564317",
")  c #5C4014",
"_  c #504619",
"`  c #6D4117",
"'  c #73441A",
"]  c #5B4838",
"[  c #7B512D",
"{  c #3D5548",
"}  c #3F574B",
"|  c #177245",
" . c #177446",
".. c #177849",
"X. c #414040",
"o. c #424241",
"O. c #434343",
"+. c #444443",
"@. c #444444",
"#. c #454544",
"$. c #464545",
"%. c #474646",
"&. c #484848",
"*. c #4C4B4B",
"=. c #504A45",
"-. c #5E544C",
";. c #515150",
":. c #515151",
">. c #545353",
",. c gray33",
"<. c #565655",
"1. c #585757",
"2. c #5A5959",
"3. c #5B5B5A",
"4. c #5F5E5E",
"5. c #7B5941",
"6. c #5A665F",
"7. c #626161",
"8. c #666565",
"9. c #686868",
"0. c #6A6A69",
"q. c #6D6D6C",
"w. c #706F6F",
"e. c #7D7169",
"r. c #727171",
"t. c #727271",
"y. c #727272",
"u. c #757574",
"i. c #777776",
"p. c #777777",
"a. c gray48",
"s. c #7D7C7C",
"d. c #7F7F7E",
"f. c #936037",
"g. c #80634C",
"h. c #90694A",
"j. c #9B7455",
"k. c #97745C",
"l. c #A07A5B",
"z. c #848483",
"x. c #858484",
"c. c #868686",
"v. c #8A8989",
"b. c #919090",
"n. c gray57",
"m. c #939292",
"M. c #949393",
"N. c gray58",
"B. c #959595",
"V. c #9B9B9A",
"C. c #9C9B9B",
"Z. c #9D9C9C",
"A. c #B4A090",
"S. c #A3A2A2",
"D. c #A4A3A3",
"F. c #A8A8A7",
"G. c #ABAAAA",
"H. c #B2B2B2",
"J. c #B3B2B2",
"K. c #F087B6",
"L. c #E697BA",
"P. c #D1B6C2",
"I. c #C1C1C1",
"U. c #C7C6C6",
"Y. c gray81",
"T. c gray93",
/* pixels */
"S S S S S S S S S S S S S S S S S S S S S S S S S S S S S S S S ",
"S S S S S T _ S S S S S S S S S S S S T _ S S S S S S S S f.' S ",
"S S S S S _ A S S S S S T _ S S S S S _ A S S S S S S S S ' F S ",
"S S S S S S S S S T T T J A f.' S S S S S S S S S S S S S S S S ",
"S S f.' S S S T T ..! R _ S ' F S S S S S S S S S S S S S S S S ",
"S S ' F S T T ! ! ....W _ S S S S S f.' S S S S S S S S S S S S ",
"S S S S T ......^ ^ Q Y A S S S S S ' F S S S S T _ S S S S S S ",
"S S S T ! ! ! ......W _ S S S S S S S S S S S S _ A S S S S S S ",
"S S S T .. .! ^ ^ Q Y A S S S T _ S S S S f.' S S S S S f.' S S ",
"S S S _ W W | | | E _ S S S S _ A S S S ( ' F S S S S S ' F S S ",
"S S S S _ _ W W W Y A S S S S S S S S S T _ S S S S S S S S S S ",
"S S S S S S _ _ _ A S f.' S S B N N N N ) T T T _ S S S S S S S ",
"S S S S S S S S S S S ' F S B 8 s s s e N T ! | W T _ S S S T _ ",
"S S S S f.' S S S S S S S B + ;.M.M.M.n.e K ....^ ! R T _ S _ A ",
"S S S S ' F S S S S S S N 1 ;.u.u.u.%.C.c.  W ^ ~ ......W _ S S ",
"S S S S S S S S S S S N : &.u.u.u.J.x.8.c.  T ......^ ! ! R _ S ",
"S S S S S > > > > S S > = u.u.u.<.u.J.4.O.> _ P q q 4 U ..W _ S ",
"S S S f.7 p.p.p.p.6 N : t 2.2.2.c & 2.] 7 S V { p.p.p.} P Y A S ",
"S S S 9 H.T.T.T.T.H.1 g . - u u u u u , O B H Y.T.T.T.Y.6.M S S ",
"S S S B v v T.T.T.T.b.p u >.m.S.S.S.r.a u H I.T.T.T.N.v G V S S ",
"S S S S N N 9.T.T.T.H.& o.g.j.A.U.l.h.-.z v T.T.T.I.G N V S S S ",
"S S S S     T.T.T.T.H.& >.k.< d 3.  5.e.z v T.T.T.T.p.  > S S S ",
"S S S o T.T.T.T.  v H.& d.U.U.d.z U.U.U.z v T.  p.T.T.T.p.> S S ",
"S S T _     T.  N     & z S.d.X   u U.3.z     S > p.p.  > S S S ",
"S S _ A S S   S S S S > & S.U.L.K.P.U.3.  J.m *.f ; > ` D S S S ",
"S S S S S S S S S S S I 3 r u a.B.@.u $ v.m q.G.y.@ V S S S S S ",
"S S S f.' S S S [ ` V w l % X % * * # j h *.J.s.%.X.> S S S S S ",
"S S S ' F S S S ` D > o.z.;.z 7.w.w.#.i.z.y M.<.M.c.> S S T _ S ",
"S S S S S S S S S S > k i.;.z n 7.$.b i.0.= u.x.u.1.> S S _ A S ",
"S S S S S S L / S S > ,.V.%.z u x i z t.F.s J.8.<.1.> S S S S S ",
"S S T _ S S / Z S S 2 2.M.%.z z & z z 8.J.= u.<.M.c.0 ` S S S S ",
"S S _ A S S S S S S 5 :.q.z z ;.k 0.+.z J.y M.D.Z.=.C D S S S S "
};
