/* XPM */
static char *result[] = {
/* columns rows colors chars-per-pixel */
"32 32 154 2 ",
"   c black",
".  c gray1",
"X  c #0E0E0E",
"o  c gray6",
"O  c #1A0F04",
"+  c #031B0E",
"@  c #05180E",
"#  c #1B1006",
"$  c #1F140B",
"%  c #1E150D",
"&  c #161515",
"*  c #1C1C1B",
"=  c #1D1D1D",
"-  c #271606",
";  c #341E08",
":  c #221C16",
">  c #281D12",
",  c #2E1E11",
"<  c #1C2811",
"1  c #06351C",
"2  c #08381F",
"3  c #37200A",
"4  c #3B280C",
"5  c #292018",
"6  c #3B2A1A",
"7  c #3D2C1C",
"8  c #0D3C22",
"9  c #0C3C25",
"0  c #212120",
"q  c gray14",
"w  c #272727",
"e  c gray16",
"r  c #2A2A2A",
"t  c #2C2C2C",
"y  c #2D2D2C",
"u  c #2D2D2D",
"i  c #352C24",
"p  c #30302F",
"a  c #323C2A",
"s  c #313131",
"d  c #343333",
"f  c #373736",
"g  c #3A3A32",
"h  c gray22",
"j  c #393938",
"k  c #3B3A3A",
"l  c gray23",
"z  c #3F3F3E",
"x  c #3F3F3F",
"c  c #41250A",
"v  c #482F0E",
"b  c #4E2C0C",
"n  c #55300D",
"m  c #5B340E",
"M  c #593616",
"N  c #623E12",
"B  c #683B10",
"V  c #693C12",
"C  c #6B3D12",
"Z  c #453424",
"A  c #41362B",
"S  c #40382F",
"D  c #3D471C",
"F  c #3E4E1F",
"G  c #054D26",
"H  c #064E28",
"J  c #074F29",
"K  c #07542B",
"L  c #06592D",
"P  c #3F4F21",
"I  c #204431",
"U  c #264B39",
"Y  c #076633",
"T  c #0B6534",
"R  c #0B6937",
"E  c #0B6B39",
"W  c #0E6939",
"Q  c #156037",
"!  c #16663C",
"~  c #564317",
"^  c #5C4014",
"/  c #504619",
"(  c #6D4117",
")  c #73441A",
"_  c #48423D",
"`  c #554A3F",
"'  c #6E4829",
"]  c #7B512D",
"[  c #3D5548",
"{  c #177245",
"}  c #177446",
"|  c #177849",
" . c #414040",
".. c #424241",
"X. c #474646",
"o. c gray29",
"O. c #4C4B4B",
"+. c gray30",
"@. c #4F4F4E",
"#. c #415349",
"$. c #41594E",
"%. c #50504F",
"&. c #515151",
"*. c #545353",
"=. c #565655",
"-. c #575656",
";. c #575756",
":. c #5A5959",
">. c gray36",
",. c #66605B",
"<. c #5C6560",
"1. c #5C6862",
"2. c #606060",
"3. c #626161",
"4. c #656564",
"5. c #666565",
"6. c #676767",
"7. c #686868",
"8. c #6C6C6B",
"9. c #6D6D6D",
"0. c #706F6F",
"q. c #727272",
"w. c #757574",
"e. c #767675",
"r. c #777777",
"t. c #797878",
"y. c #7A7A79",
"u. c #7B7B7A",
"i. c #7E7D7D",
"p. c #7E7E7D",
"a. c #936037",
"s. c #858484",
"d. c #868686",
"f. c #878686",
"g. c #8A8989",
"h. c #8C8C8B",
"j. c #929291",
"k. c #949393",
"l. c gray58",
"z. c #999898",
"x. c #9C9B9B",
"c. c #9D9D9C",
"v. c #A1A1A0",
"b. c #A3A2A2",
"n. c #A4A3A3",
"m. c #A5A5A4",
"M. c #A8A8A7",
"N. c #AEADAD",
"B. c #AFAEAE",
"V. c #B2B2B2",
"C. c #B3B2B2",
"Z. c #C1C1C1",
"A. c gray81",
"S. c gray93",
/* pixels */
"B B B B B B B B B B B B B B B B B B B B B B B B B B B B B B B B ",
"B B B B B Y / B B B B B B B B B B B B Y / B B B B B B B B a.) B ",
"B B B B B / N B B B B B Y / B B B B B / N B B B B B B B B ) C B ",
"B B B B B B B B B Y Y Y F N a.) B B B B B B B B B B B B B B B B ",
"B B a.) B B B Y Y | Q T / B ) C B B B B B B B B B B B B B B B B ",
"B B ) C B Y Y Q Q | | E / B B B B B a.) B B B B B B B B B B B B ",
"B B B B Y | | | ! ! W P N B B B B B ) C B B B B Y / B B B B B B ",
"B B B Y Q Q Q | | | E / B B B B B B B B B B B B / N B B B B B B ",
"B B B Y | } Q ! ! W P N B B B Y / B B B B a.) B B B B B a.) B B ",
"B B B / E E { { { R / B B B B / N B B B ^ ) C B B B B B ) C B B ",
"B B B B / < 2 2 2 P N B B B B B B B B B Y / B b ; ; ; b B B B B ",
"B B B B ; r.r.r.r.4 B a.) c ; ; ; ; ; B ~ Y G [ r.r.r.` b B B B ",
"B B B ; r.S.S.S.S.,.c M 3 : * * * * * ; ; L #.V.S.S.S.V.` m Y / ",
"B B B ; r.l.S.S.S.A.,.> * p f f f f f * * I V.S.S.S.V.r.` m / N ",
"B B B B ; Z l.S.S.S.V.* f f ;.3.3.3...f f l S.S.S.V.$.9 J / B B ",
"B B B B O S Z.S.S.S.V.* f ;.8.0.0.0.4.f f l S.S.S.A.<.@ 8 T / B ",
"B B B O V.Z.S.S.l l.V.* f 3.0.0.0.0.0.f f l Z.l l.S.A.V.1.K / B ",
"B B B ' l 7.S.l G a t * f ..4.0.0.0.%.f f o g H U Z.l.l I D N B ",
"B B B ) C b   B / N B ; e f f f f f f f   B N P E + 1 / / B B B ",
"B B B B B B B B B B ; O O e f f f f f u C.  B N / / / B B B B B ",
"B B B B B B B B B B B ; - % X .     d C.C.  B B B B B B B B B B ",
"B B B B B B B B B B m 7 = y y t u u r & u v B B B B B B B B B B ",
"B B B B B B ] ( B m 6 9.s.=.& d.x.k.t  .C.w n B B B B B B B B B ",
"B B Y / B B ( V B ; @.m.N.N.+.0.s.w.j   N.c.O B B B B ] ( B B B ",
"B B / N B B B B m A t.M.4.@.-.q w.C.i.  M.m._ c B B B ( V B B B ",
"B B B B B B B B b w &.:.q * o.6.X.C.0.-.M.m.p.$ ( B B B B B B B ",
"B B B a.) B B m , X k :.6.=.5.n.=.:.-.m.c.M.d.# V B B B B B B B ",
"B B B ) C B n i d.p =.k.C.2.X X.0 l h.c.M.B.y.O B B B B B Y / B ",
"B B B B B n % O.C.k.q.= u :.d.d.d.n.N.N.B.z.>.O B B B B B / N B ",
"B B B B B i g.z =.u x e.e.h.b.b.b.b.b.b.v.j.*.O B B B B B B B B ",
"B B Y / B u C.C.X - s u.c.c.c.c.c.c.c.c.j.0.5 n B B ] ( B B B B ",
"B B / N B X f f   ; h 0.0.f.c.c.c.c.j.0.0.0.O B B B ( V B B B B "
};
