/* XPM */
static char *result[] = {
/* columns rows colors chars-per-pixel */
"32 32 159 2 ",
"   c black",
".  c gray4",
"X  c #0E0E0E",
"o  c #140B03",
"O  c #1A0F04",
"+  c #04140B",
"@  c #05180E",
"#  c #1D1207",
"$  c #061E12",
"%  c #161515",
"&  c #1C1F18",
"*  c #1C1C1B",
"=  c gray11",
"-  c #1D1D1D",
";  c #271606",
":  c #2E1A07",
">  c #251A0F",
",  c #341E08",
"<  c #221C16",
"1  c #281D12",
"2  c #0A2D1A",
"3  c #37200A",
"4  c #25231F",
"5  c #29221D",
"6  c #363715",
"7  c #3C3413",
"8  c #3C3B16",
"9  c #0B3922",
"0  c #1C3B2A",
"q  c gray13",
"w  c #252525",
"e  c #262625",
"r  c #282827",
"t  c #282828",
"y  c #292928",
"u  c gray16",
"i  c #2A2A2A",
"p  c gray17",
"a  c #2D2D2C",
"s  c #2D2D2D",
"d  c #2F2F2F",
"f  c #323231",
"g  c #343433",
"h  c #373736",
"j  c #3A3A3A",
"k  c gray23",
"l  c #3F3E3E",
"z  c #41250A",
"x  c #4E2C0C",
"c  c #55300D",
"v  c #57320F",
"b  c #5B340E",
"n  c #423210",
"m  c #533111",
"M  c #563313",
"N  c #623C11",
"B  c #623E12",
"V  c #683B10",
"C  c #693C12",
"Z  c #6B3D12",
"A  c #40382F",
"S  c #3E4E1F",
"D  c #044020",
"F  c #12432B",
"G  c #104E2E",
"H  c #055027",
"J  c #09512C",
"K  c #125430",
"L  c #3F4F21",
"P  c #076633",
"I  c #0B6534",
"U  c #0B6937",
"Y  c #0B6B39",
"T  c #0E6939",
"R  c #156037",
"E  c #16663C",
"W  c #4F4016",
"Q  c #504619",
"!  c #6D4117",
"~  c #73441A",
"^  c #6C4727",
"/  c #6E4829",
"(  c #7B512D",
")  c #177245",
"_  c #177446",
"`  c #177849",
"'  c #414040",
"]  c #414141",
"[  c #444443",
"{  c #464545",
"}  c #474646",
"|  c #4B4B4B",
" . c #4E4E4D",
".. c #4F4F4E",
"X. c #445049",
"o. c #50504F",
"O. c #515150",
"+. c #545353",
"@. c gray33",
"#. c #565655",
"$. c #585858",
"%. c gray35",
"&. c gray37",
"*. c #5F5E5E",
"=. c #606060",
"-. c #626161",
";. c #656565",
":. c #666565",
">. c gray40",
",. c #686767",
"<. c #696868",
"1. c #6A6A6A",
"2. c #6E6E6D",
"3. c #6F6E6E",
"4. c #706F6F",
"5. c #757574",
"6. c #767675",
"7. c #777776",
"8. c #7B7B7A",
"9. c #7B7B7B",
"0. c #7C7C7C",
"q. c #7E7E7D",
"w. c #936037",
"e. c #818080",
"r. c #848483",
"t. c #848484",
"y. c #858484",
"u. c #868686",
"i. c #8C8986",
"p. c #898989",
"a. c #8B8B8B",
"s. c #8C8C8B",
"d. c gray57",
"f. c #939392",
"g. c #939393",
"h. c #949393",
"j. c #989898",
"k. c #9B9B9B",
"l. c gray61",
"z. c #9F9F9F",
"x. c #A0A09F",
"c. c #A1A1A0",
"v. c #A2A1A1",
"b. c #A2A2A2",
"n. c gray64",
"m. c #A4A3A3",
"M. c #A4A4A3",
"N. c #A5A5A4",
"B. c #A8A8A7",
"V. c #A9A9A8",
"C. c #AAAAAA",
"Z. c gray68",
"A. c #AEAEAE",
"S. c #AFAFAF",
"D. c #B1B1B1",
"F. c #B2B2B2",
"G. c #B3B2B2",
"H. c gray71",
"J. c gray93",
/* pixels */
"V V V V V V V V V V V V V V V V V V V V V V V V V V V V V V V V ",
"V V V V V P Q V V V V V V V V V V V V P Q V V V V V V V V w.~ V ",
"V V V V V Q B V V V V V P Q V V V V V Q B V V V V V V V V ~ Z V ",
"V V V V V V V V V P P P S B w.~ V V V V V V V V V V V V V V V V ",
"V V w.~ V V V P P ` R I Q V ~ Z V V V V x x x x x x x b V V V V ",
"V V ~ Z V P P R R ` ` Y Q V V V V V / M               ; b V V V ",
"V V V V P ` ` ` E E T L B V V V V z q s | k.F.;.;.n.5.d > b V V ",
"V V V P R R R ` ` ` Y Q V V V V z < &.G.t.#.F.0.#.g.5.g.s x V V ",
"V V V P ` _ R E E T L B V V V D X.2.} 5.G.p %.* O.C.;.O.5 v V V ",
"V V V Q Y Y ) ) ) U Q V V V x & *.m.y.} =., , , > w X # m 3 , , ",
"V V V V Q Q Y Y Y L B V V V , 3.:.:.G.] 2 Q V V x , , x : F.F.F.",
"V V V V V V Q Q Q B V w.~ V , u.m.:.#.% n P P P Q V V : i.J.J.J.",
"V V V V V V V V V V V ~ Z V , ' #.s.h.w x P R ) Y P Q c A k J.J.",
"V V V V w.~ V V V V V V V V , u.5. .G.s x P ` ` E R I P 8 x k J.",
"V V V V ~ Z V V V V V V V V , u.G.5.h a . 6 J 0 i s - F $   J.J.",
"V V V V V V V V V V V V V V V O u.G.G.k.p.y s >.B.F.t.f C.J.J.J.",
"V V V V V V V V V V V V V V V : 4 g h a . b.F.A.c.B.F.t.f X H.j ",
"V V V w.~ V V V P Q V V V V w.~ : 4 u r d.B.c.S.S.N.V.Z.a.5.$.[ ",
"V V V ~ Z V V V Q B V V V V ~ Z V :   6.A.F.B.N.S.n.f.N.b.Z.c.7.",
"V V V V V V V V V V V V V V V V V V   q.M.A.F.N.B.l.9.z.j.r.B...",
"V V V V V V V V V V V V V V V V V V , q ,.x.C.Z.b.B.@.o.O.h 5.  ",
"V V V V V V V V V V V V V V V V V P P   +.8.b.D.Z.1.t e * * h * ",
"V V V V V V ( ! V V V V V V V P P ` @ i -.4.e.v.F.%.X 1 , , * * ",
"V V P Q V V ! C V V V V V P P R R $ l <.4.+.      o x ^ ! V x x ",
"V V Q B V V V V V V V V P ` ` ` $ i <.4.+.  x x x c V ! C V V V ",
"V V V V V V V V V V V P R R R $ = {       x V ( ! V V V V V V V ",
"V V V w.~ V V V ( ! V P ` _ K G +   7 B V V V ! C V V V V V V V ",
"V V V ~ Z V V V ! C V Q Y Y 9   9 U Q V V V V V V V V V V P Q V ",
"V V V V V V V V V V V V Q Q Y Y Y L B V V H W V V V V V V Q B V ",
"V V V V V V H W V V V V V V Q Q Q B V V V W N V V V V V V V V V ",
"V V P Q V V W N V V H W V V V V V V V V V V V V V V ( ! V V V V ",
"V V Q B V V V V V V W N V V V V V V V V V V V V V V ! C V V V V "
};
