/* XPM */
static char *result[] = {
/* columns rows colors chars-per-pixel */
"32 32 113 2 ",
"   c black",
".  c gray1",
"X  c #0E0E0E",
"o  c #1A0F04",
"O  c #1E150D",
"+  c #111111",
"@  c gray8",
"#  c #181818",
"$  c #1C1C1B",
"%  c gray11",
"&  c #1D1D1D",
"*  c #211205",
"=  c #2E1A07",
"-  c #341E08",
";  c #1C2811",
":  c #04331A",
">  c #0B301C",
",  c #2E200A",
"<  c #3F2712",
"1  c #3B2A1A",
"2  c #0C3C25",
"3  c #252525",
"4  c #272727",
"5  c gray16",
"6  c #2A2929",
"7  c #2D2D2C",
"8  c #2D2D2D",
"9  c #2F2F2F",
"0  c #283220",
"q  c #323231",
"w  c #333332",
"e  c #343434",
"r  c #353535",
"t  c #363635",
"y  c #373736",
"u  c #373737",
"i  c #383737",
"p  c #3E3E3D",
"a  c #3F3E3E",
"s  c #41250A",
"d  c #4E2C0C",
"f  c #55300D",
"g  c #5B340E",
"h  c #5E3610",
"j  c #623C11",
"k  c #623E12",
"l  c #683B10",
"z  c #693C12",
"x  c #6B3D12",
"c  c #563922",
"v  c #3E4E1F",
"b  c #044020",
"n  c #055027",
"m  c #0B5A30",
"M  c #3F4F21",
"N  c #076633",
"B  c #0B6534",
"V  c #086734",
"C  c #0B6937",
"Z  c #0B6B39",
"A  c #0E6939",
"S  c #0E6C3C",
"D  c #156037",
"F  c #156238",
"G  c #16663C",
"H  c #4F4016",
"J  c #564317",
"K  c #5C4014",
"L  c #504619",
"P  c #6D4117",
"I  c #73441A",
"U  c #7B512D",
"Y  c #166E41",
"T  c #177245",
"R  c #177446",
"E  c #177849",
"W  c #414040",
"Q  c #424241",
"!  c #444443",
"~  c #454544",
"^  c #464545",
"/  c #474646",
"(  c #4C4B4B",
")  c #4F4F4E",
"_  c #504A45",
"`  c #515150",
"'  c #515151",
"]  c gray33",
"[  c #565655",
"{  c #585757",
"}  c #5A5959",
"|  c #626161",
" . c #666565",
".. c #6A6A69",
"X. c #6D6D6C",
"o. c #706F6F",
"O. c #727271",
"+. c #757574",
"@. c #767675",
"#. c #777776",
"$. c #7D7C7C",
"%. c #936037",
"&. c #848483",
"*. c #858484",
"=. c #868686",
"-. c #949393",
";. c #979796",
":. c #9B9B9A",
">. c #9D9C9C",
",. c #9D9D9C",
"<. c #A4A3A3",
"1. c #A8A8A7",
"2. c #B3B2B2",
/* pixels */
"l l l l l l l l l l g 1 t # X # % % + w q ( 2.$./ W - l l l l l ",
"l l l l l N L l l l - Q &.` y | o.o.~ #.&.3 -.[ -.=.- l l %.I l ",
"l l l l l L k l l l - r #.` y a | ^ p #...& +.*.+.{ - l l I x l ",
"l l l l l l l l l N : ] :./ y 5 i 6 y O.1.8 2. .[ { - l l l l l ",
"l l %.I l l l N N E > } -./ y y $ y y  .2.& +.[ -.=.- l l l l l ",
"l l I x l N N D D E 2 ' X.y y ` r ..! y 2.3 -.<.>._ d l l l l l ",
"l l l l N E E E G G m 0 9 y y 9 @ ` #.y u e [ [ W o l l l l l l ",
"l l l N D D D E E E Z ; $ y y $   &.;.&.. # y 7 O f l l l l l l ",
"l l l N E R D G G A M , $ &...$   ,.,.,.  c X O f l l l %.I l l ",
"l l l L Z Z T T T C L - ) ,.,.) -   ,.4 J I x l l l l l I x l l ",
"l l l l L L Z Z Z M k - ) ,.,.) - l   d N L l l l l l l l l l l ",
"l l l l l l L L L k l %.< @.) - l   d   K N N N L l l l l l l l ",
"l l l l l l l l l l l I h * = g l l l l l N D T Z N L l l l N L ",
"l l l l %.I l l l l l l s s = b L l l l l N E E G D B N L l L k ",
"l l l l I x l l l l l l l l l L k l l l l L Z G F E E E Z L l l ",
"l l l l l l l l l l l l l l l l l l l l l l N E E E G D D B L l ",
"l l l l l l l l l l l l l l l l l l l l l l L Z G G F Y E Z L l ",
"l l l %.I l l l N L l l l l %.I l l l %.I l k V T T T S Z M k l ",
"l l l I x l l l L k l l l l I x l l l I x l k M Z Z Z L L l l l ",
"l l l l l l l l l l l l l l l l l l l l l l l k L L L l l l l l ",
"l l l l l l l l l l l l l l l l l l l l N L l l l l l l l l l l ",
"l l l l l l l l l l l l l l l l l N N N v k l l l l l l l l l l ",
"l l l l l l U P l l l l l l l N N E D B L l l l l l l l l l l l ",
"l l N L l l P z l l l l l N N D D E E Z L l l l l l l U P l l l ",
"l l L k l l l l l l l l N E E E G G A M k l l l l l l P z l l l ",
"l l l l l l l l l l l N D D D E E E Z L l l l U P l l l l l l l ",
"l l l %.I l l l U P l N E R D G G A M k l l l P z l l l l l l l ",
"l l l I x l l l P z l L Z Z T T T C L l l l l l l l l l l N L l ",
"l l l l l l l l l l l l L L Z Z Z M k l l n H l l l l l l L k l ",
"l l l l l l n H l l l l l l L L L k l l l H j l l l l l l l l l ",
"l l N L l l H j l l n H l l l l l l l l l l l l l l U P l l l l ",
"l l L k l l l l l l H j l l l l l l l l l l l l l l P z l l l l "
};
