/* XPM */
static char *result[] = {
/* columns rows colors chars-per-pixel */
"32 32 112 2 ",
"   c black",
".  c #070401",
"X  c gray4",
"o  c #0F080B",
"O  c #0E0E0E",
"+  c #140B03",
"@  c #1A0F04",
"#  c #021A0D",
"$  c #061E12",
"%  c #151514",
"&  c #1B1510",
"*  c #181818",
"=  c #1C1C1B",
"-  c #271606",
";  c #341E08",
":  c #211B16",
">  c #271F17",
",  c #291E16",
"<  c #16211B",
"1  c #2A251F",
"2  c #3D2C1C",
"3  c #293013",
"4  c #222222",
"5  c #272727",
"6  c gray16",
"7  c gray17",
"8  c #2D2D2C",
"9  c #373736",
"0  c #393939",
"q  c #3E3E3D",
"w  c #41250A",
"e  c #4E2C0C",
"r  c #55300D",
"t  c #5B340E",
"y  c #462C14",
"u  c #4A301C",
"i  c #62370F",
"p  c #623C11",
"a  c #623E12",
"s  c #683B10",
"d  c #693C12",
"f  c #6B3D12",
"g  c #402425",
"h  c #403F3F",
"j  c #3E4E1F",
"k  c #084425",
"l  c #055027",
"z  c #3F4F21",
"x  c #076633",
"c  c #0B6534",
"v  c #086734",
"b  c #0B6937",
"n  c #0B6B39",
"m  c #0E6939",
"M  c #0E6C3C",
"N  c #156037",
"B  c #156238",
"V  c #16663C",
"C  c #4F4016",
"Z  c #564317",
"A  c #5C4014",
"S  c #504619",
"D  c #6D4117",
"F  c #73441A",
"G  c #7B512D",
"H  c #166E41",
"J  c #177245",
"K  c #177446",
"L  c #177849",
"P  c #424241",
"I  c #4C4C4B",
"U  c #4E4E4D",
"Y  c #4F4F4E",
"T  c #55424A",
"R  c #58524C",
"E  c #515151",
"W  c #545353",
"Q  c #5F5F5F",
"!  c #626161",
"~  c #626261",
"^  c #626262",
"/  c #636262",
"(  c #6B6865",
")  c #6C6B6B",
"_  c #6F6F6F",
"`  c #767675",
"'  c #7B7B7B",
"]  c #7C7C7C",
"[  c #936037",
"{  c #8A6445",
"}  c #97745C",
"|  c #905670",
" . c #818180",
".. c #8C8B8B",
"X. c gray56",
"o. c #979796",
"O. c #9B9B9B",
"+. c #9D9D9C",
"@. c #9D9D9D",
"#. c #A2A2A2",
"$. c #A3A2A2",
"%. c gray64",
"&. c #A5A5A4",
"*. c #AAAAAA",
"=. c gray68",
"-. c #AEAEAE",
";. c #B1B1B1",
":. c #B2B2B2",
">. c #B5B4B4",
",. c #C0C0BF",
"<. c #C7C6C6",
"1. c gray93",
/* pixels */
"s s s s s s s s s s s s s s s s s s s s s s s s s s s s s s s s ",
"s s s s s x S s s s s s s s s s s s s x S s s s s s s s s [ F s ",
"s s s s s S a s s s s s x S s s s s s S a s s s s s s s s F f s ",
"s s s s s s s s s x x x j a [ F s s s s s s s s s s s s s s s s ",
"s s [ F s s s x x L N c S s F f s s s s s s s s s s s s s s s s ",
"s s F f s x x N N L L n S s s s s s [ F s s s s s s s s s s s s ",
"s s s s x L L L V V m z a s s s s s F f s s s s x S s s s s s s ",
"s s s x N N N L L L n S s s s s s s s s s s s s S a s s s s s s ",
"s s s x L K N V V m z a s s s x S s s s s [ F s s s s s [ F s s ",
"; s s S n n J J J b S s s s s S a s s s Z F f s s s s s F f s s ",
":.@ @ @ # # $ k n z a s s s s s s s s s x S s s s s s s s s s s ",
"1.:.6 6 6 6 6 < 3 a s [ F s s s s s s s A x x x S s s s s s s s ",
"1.1.@.9 9 I ! ..R r s F f s s s s s s s s x N J n x S s s s x S ",
"1.1.1.,.9 W { [ u e s s s s s x S s s s s x L L V N c x S s S a ",
"1.1.1.,.9 W } , = O e s s s s S a s s s s S n V B L L L n S s s ",
"  X.1.,.9 9 $.<.) X e s s s s s s s s s s s x L L L V N N c S s ",
"* ! ' @.9 9 $.>.T o e s s s s s s s s s s s S n V V B H L n S s ",
"4 8 9 9 9 9  .Q | g r s s s [ F s s s [ F s a v J J J M n z a s ",
"q h = = = = & @ @ r s s s s F f s s s F f s a z n n n S S s s s ",
"P / = % . @ w s s s s s s s s s s s s s s s s a S S S s s s s s ",
"9 U ] ~ ( @ w s s s s s s s s s s s s s x S s s s s s s s s s s ",
"0 O.#.o.%.` 1 @ w s s s s s s s s x x x j a s s s s s s s s s s ",
"2 _ =.*.;.&.^ Y : r s s s s s x x L N c S s s s s s s s s s s s ",
"i y _ -.E   Y +.5 e s s s x x N N L L n S s s s s s s G D s s s ",
"s i 2 7 > e +   -   e s x L L L V V m z a s s s s s s D d s s s ",
"s s t e r s r e t   e x N N N L L L n S s s s G D s s s s s s s ",
"s s s [ F s s s G D s x L K N V V m z a s s s D d s s s s s s s ",
"s s s F f s s s D d s S n n J J J b S s s s s s s s s s s x S s ",
"s s s s s s s s s s s s S S n n n z a s s l C s s s s s s S a s ",
"s s s s s s l C s s s s s s S S S a s s s C p s s s s s s s s s ",
"s s x S s s C p s s l C s s s s s s s s s s s s s s G D s s s s ",
"s s S a s s s s s s C p s s s s s s s s s s s s s s D d s s s s "
};
