/* XPM */
static char *c487ccc794d3418fcf9fa81fead9de9dthVWIfPQmEFEhpOJ[] = {
/* columns rows colors chars-per-pixel */
"32 32 21 1 ",
"  c #623E12",
". c #683B10",
"X c #3E4E1F",
"o c #055027",
"O c #3F4F21",
"+ c #076633",
"@ c #086633",
"# c #0A6534",
"$ c #0B6937",
"% c #0B6B39",
"& c #0E6939",
"* c #156037",
"= c #15653A",
"- c #16663C",
"; c #564317",
": c #51471A",
"> c #7B512D",
", c #177245",
"< c #177446",
"1 c #177849",
"2 c #936037",
/* pixels */
"................................",
".....+.............+.........2..",
"............+...................",
".........+++..2.................",
"..2....++1*+....................",
".....++**11+......2.............",
"....+111**+.............+.......",
"...+***111+.....................",
"...+11***+.....+.....2......2...",
"....++111+..........: ..........",
"......+++...........+X: ........",
"...........2.........+#@:.......",
".....................+-<%+:...+.",
"....2..........+....;$11=*#+;...",
".....................:#--111+...",
".....................:%111***+..",
"......................:&--*<1+..",
"...2....+.....2....2..:$,,,%%:..",
"...................... O%%%::...",
"....................... :::.....",
"....................+...........",
".................+++............",
"......>........++1*+............",
"..+..........++**11+.......>....",
"............+111**+.............",
"...........+***111+....>........",
"...2....>..+11***+..............",
"............++111+...........+..",
"..............+++....o..........",
"......o.........................",
"..+.......o...............>.....",
"................................"
};
