/* XPM */
static char *_66513bb755848eb8403460869139b71A8KyzCRBvOTBXkid[] = {
/* columns rows colors chars-per-pixel */
"32 32 155 2 ",
"   c black",
".  c #0E0E0E",
"X  c #140B03",
"o  c #1A0F04",
"O  c #01130A",
"+  c #05180E",
"@  c #1B1C0A",
"#  c #161515",
"$  c #1C1C1B",
"%  c #1D1D1D",
"&  c #2E1A07",
"*  c #25180E",
"=  c #2E1D0D",
"-  c #341E08",
";  c #221C16",
":  c #281D12",
">  c #072617",
",  c #092A18",
"<  c #16211B",
"1  c #06351C",
"2  c #0A301D",
"3  c #04391D",
"4  c #25231F",
"5  c #382717",
"6  c #3B2A1A",
"7  c #3D2C1C",
"8  c #0A3520",
"9  c #0B3922",
"0  c #0C3C25",
"q  c #1E3A2B",
"w  c #1A3E2B",
"e  c #232322",
"r  c #252525",
"t  c gray16",
"y  c #2C2C2C",
"u  c #352C24",
"i  c #39312A",
"p  c #2D3F35",
"a  c #373736",
"s  c #383737",
"d  c gray23",
"f  c #3C3C3B",
"g  c #3E3E3D",
"h  c #41250A",
"j  c #4E2C0C",
"k  c #55300D",
"l  c #5B340E",
"z  c #442E1E",
"x  c #433E17",
"c  c #493018",
"v  c #62370F",
"b  c #623E12",
"n  c #683B10",
"m  c #453424",
"M  c #40382F",
"N  c #3E4E1F",
"B  c #044020",
"V  c #0E4227",
"C  c #054D26",
"Z  c #104829",
"A  c #114E2D",
"S  c #055027",
"D  c #065329",
"F  c #06592D",
"G  c #125430",
"H  c #115A37",
"J  c #204431",
"K  c #294134",
"L  c #2E4036",
"P  c #2D4539",
"I  c #31433A",
"U  c #076633",
"Y  c #086633",
"T  c #0A6534",
"R  c #0B6B39",
"E  c #156037",
"W  c #15653A",
"Q  c #16663C",
"!  c #564317",
"~  c #504619",
"^  c #48423D",
"/  c #554A3F",
"(  c #6E4829",
")  c #774E2D",
"_  c #7B512D",
"`  c #167144",
"'  c #177446",
"]  c #177849",
"[  c gray25",
"{  c #444443",
"}  c #454544",
"|  c #4A4A49",
" . c #4C4B4B",
".. c #4C4C4B",
"X. c #4E4E4D",
"o. c #504A45",
"O. c #50504F",
"+. c #525251",
"@. c #545353",
"#. c #565655",
"$. c #585757",
"%. c #5A5A59",
"&. c #5F5C59",
"*. c #5E5E5D",
"=. c #6B5D53",
"-. c #7A614C",
";. c #66605B",
":. c #5C6862",
">. c #626161",
",. c #646463",
"<. c #656564",
"1. c #666C69",
"2. c #686868",
"3. c #6D6D6C",
"4. c #706F6F",
"5. c #70706F",
"6. c #727271",
"7. c #747473",
"8. c #777777",
"9. c #797978",
"0. c #7F7F7E",
"q. c #936037",
"w. c #88705F",
"e. c #A0714E",
"r. c #A28874",
"t. c #AD937F",
"y. c #838382",
"u. c #858484",
"i. c #888887",
"p. c #8C8986",
"a. c #878D8A",
"s. c #8A8989",
"d. c #8C8C8B",
"f. c #8D8D8C",
"g. c #908F8F",
"h. c #939292",
"j. c #949393",
"k. c gray58",
"l. c #9B9B9B",
"z. c #9C9B9B",
"x. c #9D9D9C",
"c. c #A09C9A",
"v. c #A3A2A2",
"b. c #BAADA2",
"n. c #BEB2AA",
"m. c #B8B1AD",
"M. c #B2B2B2",
"N. c #F087B6",
"B. c #E697BA",
"V. c #D1B6C2",
"C. c #C1C1C1",
"Z. c #C7C6C6",
"A. c gray81",
"S. c gray87",
"D. c gray93",
/* pixels */
"n n n n n n n n n n n n n n n n n n n n n n n n n n n n n n n n ",
"n n n n n U n n n n n n n n n n n n n U n n n n n n n n n q.n n ",
"n n n n n n n n n n n n U n n n n n n n n n n n n n n n n n n n ",
"n n n n k M d d d D U U n j ( j j j l n n v c d d d m v n n n n ",
"n n q.l M C.D.D.D.I A D j . . . . . = j v c 2.D.D.D.k.c v n n n ",
"n n n h p.M.D.D.D.A.:.< $ ..0.0.0.7.s $ = k.D.D.D.A.M.M k n n n ",
"n n n n B 0 8.D.D.D.M.t } -.t.Z.b.r.=.g . D.D.D.A./ - l n n n n ",
"n n n U , + M.D.D.D.M.t *.e.* 0.o.z w.O.. D.D.D.S.;.o k n n n n ",
"n n n B a.M.D.D.d k.M.t h.n.k.a <.c.m.7.. D.d k.D.A.M.M ) n n n ",
"n n n l L d D.2.H J y t +.Z.*.  # h.h.| . d j m k.k.d c v n n n ",
"n n n n n n   C U n n o t Z.V.N.B.Z.0.$ C N ~ b - - n n n n n n ",
"n n n n n n n n n n n q.& t } k.9.t a 7 v U T Y ~ n n n n n n n ",
"n n n n n n n n n n n n h $ $ $ $ $ 3.9.7 F Q ' R U ~ n n n U n ",
"n n n n q.n n n n n n h ; @.g a } ..t +.4.w 0 ] W E T U ! n n n ",
"n n n n n n n n n n h &.%.@.<.>.>...a 2.3.h.u.2 Q ] ] ] U n n n ",
"n n n n n n n n n n - g 0.| 4.4.>.a 5.5.# v.v.1.8 ] E E E U n n ",
"n n n n n n n n n h ^ i.>.g d 4.y a | 6.9.*.f.l.1.V E ' ] U n n ",
"n n n q.n n n n U - #.%.<.a a e a a <.X.g.X.u.v.u.9 ` R R ~ n n ",
"n n n n n n n n n - %.#.a a a . a a a { l.*.u.f.8.1 R ~ ~ n n n ",
"n n n n n n n n n h o.*.s.,.y.t >.,.,.>.d u.u.x.y.@ x n n n n n ",
"n n n n n h - - n n - 8.x.x.a a X.x.x.X.4.9.u.y.9.t : l n n n n ",
"n n n n h o.%.%.- n j ^ s.>.a a f 8.8.K d | u.[ | } $.7 l n n n ",
"n n n n o u.u.8.t & n h ^ 6 $ $ < P p C - 5 { : $.j.d.h.u n n n ",
"n n U n o u.#.j.j.o n & & O 3 Z , > > B o X j l 7  .d.3.# n n n ",
"n n n n k u g M.#.t o k F H ` ] G A D l j j n - $ j.u.M.y n n n ",
"n n n n n n   M.#.M.s.r q Z Z H H H C j j y # 4.M.8.j.y j n n n ",
"n n n q.n n n o i 8.} d.2.# r . r # % r # M.3.9.$.o.o k n n n n ",
"n n n n n n n n k ; $.$.9.u.8.8.8.8.8.j.u.z.u.4 o h n n n U n n ",
"n n n n n n n n n j - - ; %.t %.t | d d %.t - h n n n n n n n n ",
"n n n n n n S n n n n n h - - - - - - - - - n n n n n n n n n n ",
"n n U n n n n n n n S n n n n n n n n n n n n n n n _ n n n n n ",
"n n n n n n n n n n n n n n n n n n n n n n n n n n n n n n n n "
};
