/* XPM */
static char *result[] = {
/* columns rows colors chars-per-pixel */
"32 32 201 2 ",
"   c black",
".  c #070707",
"X  c #0D0702",
"o  c #0E0E0E",
"O  c #1A0F04",
"+  c #04120A",
"@  c #021A0D",
"#  c #1B1006",
"$  c #061E12",
"%  c #0C1D14",
"&  c #151514",
"*  c #181818",
"=  c #191919",
"-  c #1C1F18",
";  c #1C1C1B",
":  c gray11",
">  c #1D1D1D",
",  c #271606",
"<  c #2E1A07",
"1  c #2F1B09",
"2  c #2E1D0D",
"3  c #341E08",
"4  c #221C16",
"5  c #072918",
"6  c #152510",
"7  c #1C2811",
"8  c #17211B",
"9  c #0B301C",
"0  c #0B331E",
"q  c #28200B",
"w  c #2E200A",
"e  c #3B280C",
"r  c #25231F",
"t  c #232C1A",
"y  c #3E2B1B",
"u  c #3D2C1C",
"i  c #3C3413",
"p  c #0B3620",
"a  c #0B3B23",
"s  c #0C3C25",
"d  c #193927",
"f  c #1E3529",
"g  c #252525",
"h  c gray15",
"j  c #272727",
"k  c gray16",
"l  c #2D2D2D",
"z  c #29372F",
"x  c #37312C",
"c  c #313030",
"v  c #323231",
"b  c #373736",
"n  c #373737",
"m  c gray22",
"M  c #3A3939",
"N  c gray23",
"B  c #3E3E3D",
"V  c #41250A",
"C  c #4E2C0C",
"Z  c #55300D",
"A  c #5B340E",
"S  c #462C14",
"D  c #423210",
"F  c #563313",
"G  c #5B3A11",
"H  c #623C11",
"J  c #623E12",
"K  c #683B10",
"L  c #693C12",
"P  c #6B3D12",
"I  c #453424",
"U  c #49303B",
"Y  c #3E4E1F",
"T  c #044020",
"R  c #084022",
"E  c #054D26",
"W  c #104829",
"Q  c #104B2C",
"!  c #055027",
"~  c #07532A",
"^  c #06592D",
"/  c #0B5A30",
"(  c #115432",
")  c #115A37",
"_  c #125D38",
"`  c #3E4D20",
"'  c #3F4F21",
"]  c #076633",
"[  c #086633",
"{  c #096534",
"}  c #0B6534",
"|  c #0B6635",
" . c #0A6937",
".. c #0B6937",
"X. c #0B6B39",
"o. c #0E6838",
"O. c #0E6939",
"+. c #156037",
"@. c #13623B",
"#. c #146038",
"$. c #156238",
"%. c #156339",
"&. c #16663C",
"*. c #166B3F",
"=. c #4F4016",
"-. c #564317",
";. c #5C4014",
":. c #504619",
">. c #6D4117",
",. c #6C4119",
"<. c #73441A",
"1. c #40403F",
"2. c #554A3F",
"3. c #6E4829",
"4. c #7B512D",
"5. c #734E31",
"6. c #593344",
"7. c #663A46",
"8. c #156C41",
"9. c #177245",
"0. c #177446",
"q. c #177849",
"w. c #414141",
"e. c #424241",
"r. c #454544",
"t. c #464545",
"y. c #464645",
"u. c #474646",
"i. c #494948",
"p. c #4A4A49",
"a. c #4E4E4E",
"s. c #4F4F4E",
"d. c #504A45",
"f. c #515150",
"g. c #515151",
"h. c #525151",
"j. c #545353",
"k. c gray33",
"l. c #565655",
"z. c #575656",
"x. c #585757",
"c. c #585858",
"v. c #5A5959",
"b. c #5B5B5A",
"n. c #5F5E5E",
"m. c #66605B",
"M. c #60635D",
"N. c #606060",
"B. c #626161",
"V. c #626262",
"C. c #656464",
"Z. c #666565",
"A. c #6C6661",
"S. c #6C6967",
"D. c #686868",
"F. c #6A6A6A",
"G. c #6D6D6C",
"H. c #7B6E65",
"J. c #7B616C",
"K. c #726E6C",
"L. c #706F6F",
"P. c #70706F",
"I. c #737372",
"U. c #757574",
"Y. c #777777",
"T. c #7A7A79",
"R. c #7D7C7C",
"E. c #936037",
"W. c #8D8179",
"Q. c #8C817A",
"!. c #818080",
"~. c #838383",
"^. c #858484",
"/. c #868686",
"(. c #878786",
"). c #8C8986",
"_. c #8A8A89",
"`. c #8D8C8C",
"'. c #998C82",
"]. c #919090",
"[. c #929191",
"{. c #929292",
"}. c #949393",
"|. c #969695",
" X c gray60",
".X c #9C9B9B",
"XX c #9D9D9C",
"oX c #A1A0A0",
"OX c #A3A2A2",
"+X c #A4A3A3",
"@X c #A8A8A7",
"#X c #ABAAAA",
"$X c #AEADAD",
"%X c #B2B2B2",
"&X c #B3B2B2",
"*X c #B5B4B4",
"=X c #C1C1C1",
"-X c #C7C6C6",
";X c gray81",
":X c gray87",
">X c gray93",
/* pixels */
"K K K K J :.K K K K K K K K K K K K J :.K K K K K K K K P <.K K ",
"K K K K :.] K K K K K J :.K K K K K :.] K K K K K K K K <.E.K K ",
"K K K K K K K K J :.:.Y ] P <.K K C       O K K K K K K K K K K ",
"K P <.K K K J :.' ..~ % o o o o = D.>X>X>X=XI A K K K K K K K K ",
"K <.E.K J :.` } O._ z y.r.b b e.(.>X>X>X:X%Xm.V K K K K K K K K ",
"K K K J ' X.O.&.&.$ Q.'.K.b b (.>X>X>X:X).O V J :.K K K K K K K ",
"K K J ` o.9.0.q.Q 8 y 5.H.B b >X>X>X>X;Xm.3 C :.] K K K K K K K ",
"K K :.| &.+.&.q.s k c.W.A.B b >X>XoX%X>X;XY.2.C K K K P <.K K K ",
"K K :.X.q.9.+.+.9 & ~.-Xb.b b >X XB.N %X;XY.2.C K K K <.E.K K K ",
"K K K :.] X.q.q.s 6.J.*Xb.b b {.B j.X 2.M.3 C K K K K K K K K K ",
"K K K K K :.] ] E 7.U h.i.b b b b ; V D T :.:.:.K K K K K K K K ",
"K K K K K K K K K Z F 3.o o o o o k O < :.[ } X.:.:.K K K J :.K ",
"K K K P <.K K K K K K < k k k k k b k r 6 | &.q.} } :.:.K :.] K ",
"K K K <.E.K K K K K O k b L.r.b * b b U./.  s q.$.&.X.X.;.K K K ",
"K K K K K K K K K K O j.L.r.b f.XXl &X&X&X@Xs.0 *.q.9.9.{ K K K ",
"K K K K K K K K K K O j.L.r.XXXXb j XXXXXXXX@Xv.s q.+.$.%.] K K ",
"K K P <.K K K J :.K O j.h b b }.$XXXv.&X&X&X&X@Xs.W +.q.q.] K K ",
"K K <.E.K K K :.] K O   b R.}.#X&X&Xg.OXOXOXOX@Xz.) q.]  .:.K K ",
"K K K K K K K K K K O   f.b p.|.$X`.C.$X$X$X$X@Xg.E ] K -.K K K ",
"K K K K A 3 3 V K K O & I.f._.XXT.t.!.XX@X@X@X@Xk., A K K K K K ",
"K K K A u v.v.d.V K O k o XXXXXX: L.L.!.[.[.[.P.F.; 2 A K K K K ",
"K K A 2 v U.U.n.4 C V 4 . s.XXV.t m m j.B.m m c n.b N.u A K K K ",
"K J i o u.U.U.U.x.3 K V w 7 s.d / a p f x 3 3 4 n.U.^.L.u K K K ",
"K :.^ 2 w.+XU.U.x.3 K J ' @ 5 + &.@.$ @ V K K V d.U..X^.> K K K ",
"K K K C l }.Z.}.].d.e ` o.( 8.) &.#.E Z K K L 1 r }.G..Xg K K K ",
"K K P ,.S M U..Xl.1.- R &.+.&.q.q.q.] K V O # S.].G..Xa.S K K K ",
"K K <.E.C ; U.}.U.&X&Xv.                v.}.}.^..Xn l S G :.K K ",
"K K K K K 3 v.}.U.U.b }.l.}.l.}.b &XU.}.U.&XU.;   C K K :.] K K ",
"K K K K K H q ; U.U.}.U.&Xl.}.l.&Xb }.U.}.k   3 K K K K K K K K ",
"K J :.K K =.! 3                           O K K K L >.K K K K K ",
"K :.] K K K K K K =.! K K K K K K K K K K K K K K >.4.K K K K K ",
"K K K K K K K K K K K K K K K K K K K K K K K K K K K K K K K K "
};
