/* XPM */
static char *result[] = {
/* columns rows colors chars-per-pixel */
"32 32 200 2 ",
"   c black",
".  c #0E0E0E",
"X  c #1A0F04",
"o  c #04120A",
"O  c #0E1408",
"+  c #021A0D",
"@  c #141005",
"#  c #141106",
"$  c #1E150D",
"%  c #061E12",
"&  c #151514",
"*  c #181818",
"=  c #191919",
"-  c #1C1C1B",
";  c gray11",
":  c #1D1D1D",
">  c #1E1E1E",
",  c #2E1A07",
"<  c #2E1D0D",
"1  c #341E08",
"2  c #221C16",
"3  c #281D12",
"4  c #092D1B",
"5  c #152510",
"6  c #172B13",
"7  c #1C2811",
"8  c #04331A",
"9  c #3B280C",
"0  c #25231F",
"q  c #232C1A",
"w  c #3E2B1B",
"e  c #3D2C1C",
"r  c #363715",
"t  c #3C3413",
"y  c #0B3620",
"u  c #193927",
"i  c #252525",
"p  c #272727",
"a  c #292928",
"s  c gray16",
"d  c gray17",
"f  c #2D2D2D",
"g  c #302D22",
"h  c #3C222D",
"j  c #37312C",
"k  c #393028",
"l  c #313030",
"z  c #323231",
"x  c #373736",
"c  c #373737",
"v  c gray22",
"b  c #3C3C3C",
"n  c #3E3E3D",
"m  c #3F3E3E",
"M  c #41250A",
"N  c #4E2C0C",
"B  c #55300D",
"V  c #5B340E",
"C  c #462C14",
"Z  c #4C2E14",
"A  c #4E331B",
"S  c #563313",
"D  c #62370F",
"F  c #623C11",
"G  c #623E12",
"H  c #683B10",
"J  c #693C12",
"K  c #6B3D12",
"L  c #493636",
"P  c #49303B",
"I  c #3D4119",
"U  c #084022",
"Y  c #054D26",
"T  c #064C27",
"R  c #0E4B2E",
"E  c #104829",
"W  c #104B2C",
"Q  c #104E2E",
"!  c #055027",
"~  c #0B542D",
"^  c #0B552E",
"/  c #0A582E",
"(  c #115432",
")  c #115A37",
"_  c #3E4D20",
"`  c #3F4F21",
"'  c #204431",
"]  c #076633",
"[  c #096534",
"{  c #0B6534",
"}  c #0B6635",
"|  c #0A6937",
" . c #0B6B39",
".. c #0E6838",
"X. c #0E6939",
"o. c #156037",
"O. c #146038",
"+. c #156238",
"@. c #156339",
"#. c #16663C",
"$. c #166B3F",
"%. c #4F4016",
"&. c #564317",
"*. c #5C4014",
"=. c #504619",
"-. c #6D4117",
";. c #73441A",
":. c #40403F",
">. c #554A3F",
",. c #7B512D",
"<. c #734E31",
"1. c #3D5548",
"2. c #156C41",
"3. c #177245",
"4. c #177446",
"5. c #177849",
"6. c gray25",
"7. c #414141",
"8. c #454544",
"9. c #464545",
"0. c #464645",
"q. c #474646",
"w. c #4A4A49",
"e. c #4E4E4E",
"r. c #4F4F4E",
"t. c #504A45",
"y. c #41594E",
"u. c #515150",
"i. c #515151",
"p. c #525151",
"a. c #545353",
"s. c #545453",
"d. c gray33",
"f. c #565655",
"g. c #575656",
"h. c #585757",
"j. c #585858",
"k. c #5A5959",
"l. c gray36",
"z. c #5F5E5E",
"x. c #66605B",
"c. c #5C6862",
"v. c #606060",
"b. c #626161",
"n. c #626262",
"m. c #656564",
"M. c #666565",
"N. c #6B6865",
"B. c #686868",
"V. c #6A6A6A",
"C. c #6D6D6C",
"Z. c #6E6E6D",
"A. c #7B616C",
"S. c #746D68",
"D. c #706F6F",
"F. c #70706F",
"G. c #757574",
"H. c #777777",
"J. c #787877",
"K. c #797978",
"L. c #7A7A79",
"P. c #7D7C7C",
"I. c #7F7F7E",
"U. c #8A5A34",
"Y. c #936037",
"T. c #866D5B",
"R. c #857970",
"E. c #8D8179",
"W. c #8C817A",
"Q. c #818080",
"!. c #838383",
"~. c #858484",
"^. c #868686",
"/. c #878786",
"(. c #868C89",
"). c #8A8A89",
"_. c #8D8C8C",
"`. c #998C82",
"'. c #919090",
"]. c #929191",
"[. c #929292",
"{. c #949393",
"}. c gray58",
"|. c #969695",
" X c gray60",
".X c #9C9B9B",
"XX c #9D9D9C",
"oX c #A1A0A0",
"OX c #A3A2A2",
"+X c #A8A8A7",
"@X c #ABAAAA",
"#X c #AEADAD",
"$X c #B2B2B2",
"%X c #B3B2B2",
"&X c #B5B4B4",
"*X c #C1C1C1",
"=X c #C7C6C6",
"-X c gray81",
";X c gray87",
":X c gray93",
/* pixels */
"H H H H G =.H H H H H H H H H H H H G =.H H H H H H H H K ;.H H ",
"H H H H =.] H H H H H G =.H H H H H =.] H H H H H H H H ;.Y.H H ",
"H H H H H H H H G =.#       S H H H H H H H H H H H H H H H H H ",
"H K ;.H H H G =.I ' *X:X:X:XB.= . . . . $ B H H H H H H H H H H ",
"H ;.Y.H G =._ { U c.$X;X:X:X:X/.x x x 8.0.k B H H H H H H H H H ",
"H H H G `  .X.#.#.R % (.;X:X:X:Xm.x x S.`.W., G =.H H H H H H H ",
"H H G _ ..3.4.5.#.W 8 x.-X:X:X:X:Xx n T.<.w 3 r ] H H H H H H H ",
"H H =.} #.o.#.5.) y.H.-X:X}.oX:X:Xx n R.E.j.- 1 H H H K ;.H H H ",
"H H =. .5.3.o.o.E 1.H.-X$X> b. X:Xx x I.=X!.. 1 H H H ;.Y.H H H ",
"H H H =.]  .5.5.5.Y 1 x.>.  a.n [.x x I.&XA.h 1 H H H H H H H H ",
"H H H H H =.] ] ] H K Z N 1 - x x x x s.p.P L r H H H H H H H H ",
"H H H H H H H H H H ;.Y., X s . . . . $ t T /  .=.=.H H H G =.H ",
"H H H K ;.H H H H H H , 0 s x s s s s 0 5 } #.5.{ { =.=.H =.] H ",
"H H H ;.Y.H H H H 1   ^.G.x x * x 8.D.x s % 5.5.+.#. . .*.H H H ",
"H H H H H H H H 1 r.+X%X%X%Xf XXx x 8.D.a.+ } #.$.5.3.3.[ H H H ",
"H H H H H H H 1 k.+XXXXXXXXXp x XXXX8.D.a.+  .5.5.5.o.+.@.] H H ",
"H H K ;.H H 1 r.+X%X%X%X%Xf XX#X{.x x m a.X =.{ o.o.o.5.5.] H H ",
"H H ;.Y.H H 1 g.+XOXOXOXOXa %X%X@X{.P.s   X =. .5.5.5.] | =.H H ",
"H H H H H H 1 i.+X#X#X#X#X6._.#X|.w.x b   X H =.] ] ] H &.H H H ",
"H H H H H V X d.+X+X+X+XXXJ.9.L.XX).u.l.& X H H M 1 1 V H H H H ",
"H H H H V < d V.F.].].].Q.D.D.; XXXXXX- s X H M t.k.k.e V H H H ",
"H H H V e v.q.z.l v v b.a.v v q n.XXr.. 2 M N 2 z.G.G.z < D H H ",
"H G =.e D.~.G.z.2 1 1 j g 7 6 / u r.y 8 M H 1 h.G.G.G.q.. D H H ",
"H =.] : ~..XZ.t.M H H 9 O + ^ #.o 4 % ] H H 1 h.G.G.%X7.< H H H ",
"H H H i .XC.K.0 , H G _ ~ ( 2.5.Q O.Y H H M t.'.{.M.%Xf N H H H ",
"H H K A e..XP.'.N.X # U #.o.#.5.5.5.] H M 2 :.f..XG.c C D H H H ",
"H H ;.U.C f v..X~.G.{.k.                k.%X%XG.{.G.. N G =.H H ",
"H H H H H H 1   - G.%XG.{.f.%Xx {.f.{.G.{.x G.G.{.k.N H =.] H H ",
"H H H H H F %.H 1   s {.G.%Xx %Xf.{.f.{.G.{.G.G.- 1 H H H H H H ",
"H G =.H H %.! H H F @                           1 J -.H H H H H ",
"H =.] H H H H H H %.! H H H H H H H H H H H H H H -.,.H H H H H ",
"H H H H H H H H H H H H H H H H H H H H H H H H H H H H H H H H "
};
