/* XPM */
static char *result[] = {
/* columns rows colors chars-per-pixel */
"32 32 176 2 ",
"   c black",
".  c #0E0E0E",
"X  c #140B03",
"o  c #1A0F04",
"O  c #1B1006",
"+  c #1E150D",
"@  c #0C1D14",
"#  c gray8",
"$  c #151514",
"%  c #151515",
"&  c #161616",
"*  c #1C1C1B",
"=  c gray11",
"-  c #2E1D0D",
";  c #341E08",
":  c #211810",
">  c #221C16",
",  c #152510",
"<  c #16211B",
"1  c #04331A",
"2  c #0B301C",
"3  c #08331C",
"4  c #292018",
"5  c #3D2C1C",
"6  c #3F2E1E",
"7  c #363715",
"8  c #3C3B16",
"9  c #0C3C25",
"0  c #193927",
"q  c #193D2B",
"w  c gray16",
"e  c #2A2A2A",
"r  c #2D2D2C",
"t  c #2D2D2D",
"y  c #312920",
"u  c #30302F",
"i  c #323C2A",
"p  c #373736",
"a  c gray23",
"s  c #3F3E3E",
"d  c #3F3F3E",
"f  c #41250A",
"g  c #4E2C0C",
"h  c #512F0E",
"j  c #55300D",
"k  c #5B340E",
"l  c #423814",
"z  c #433E17",
"x  c #4F3912",
"c  c #493018",
"v  c #4A301C",
"b  c #563313",
"n  c #553610",
"m  c #593514",
"M  c #5B3A11",
"N  c #62370F",
"B  c #623C11",
"V  c #623E12",
"C  c #603915",
"Z  c #683B10",
"A  c #693C12",
"S  c #6B3D12",
"D  c #453424",
"F  c #40382F",
"G  c #473B31",
"H  c #3E4119",
"J  c #3E4E1F",
"K  c #054D26",
"L  c #084D28",
"P  c #104E2E",
"I  c #055027",
"U  c #065329",
"Y  c #08592D",
"T  c #085A2E",
"R  c #125430",
"E  c #135732",
"W  c #115A37",
"Q  c #204431",
"!  c #264636",
"~  c #2E4036",
"^  c #076633",
"/  c #086633",
"(  c #096534",
")  c #0B6534",
"_  c #0B6635",
"`  c #0A6937",
"'  c #0B6B39",
"]  c #156037",
"[  c #156238",
"{  c #156339",
"}  c #16663C",
"|  c #166B3F",
" . c #4F4016",
".. c #494218",
"X. c #564317",
"o. c #5C4014",
"O. c #504619",
"+. c #6D4117",
"@. c #6C4119",
"#. c #73441A",
"$. c #554A3F",
"%. c #6E4829",
"&. c #774E2D",
"*. c #7B512D",
"=. c #146940",
"-. c #177245",
";. c #177849",
":. c #414141",
">. c #454544",
",. c #474646",
"<. c #4C4C4B",
"1. c #4F4F4E",
"2. c #504A45",
"3. c #504F4F",
"4. c #415349",
"5. c #41564B",
"6. c #41594E",
"7. c #515151",
"8. c #545353",
"9. c #565655",
"0. c #585757",
"q. c #585858",
"w. c #5A5959",
"e. c #5F5F5F",
"r. c #5A665F",
"t. c #66605B",
"y. c #5C6862",
"u. c #616060",
"i. c #626161",
"p. c #656464",
"a. c #656564",
"s. c #686767",
"d. c #686868",
"f. c #6D6D6C",
"g. c #6F6E6E",
"h. c #706F6F",
"j. c #757574",
"k. c #767575",
"l. c #767675",
"z. c #777777",
"x. c #787877",
"c. c #7A7A79",
"v. c #7B7A7A",
"b. c #7B7B7A",
"n. c #7E7E7D",
"m. c #8A5A34",
"M. c #936037",
"N. c gray51",
"B. c #858484",
"V. c #868686",
"C. c #878686",
"Z. c #8A8989",
"A. c #8C8B8B",
"S. c #8C8C8B",
"D. c #949393",
"F. c gray58",
"G. c #959494",
"H. c #979796",
"J. c #9C9B9B",
"K. c #9D9D9C",
"L. c #9E9E9D",
"P. c #A0A09F",
"I. c #A2A1A1",
"U. c #A3A2A2",
"Y. c #A5A5A4",
"T. c #A7A6A6",
"R. c #A8A8A7",
"E. c #ABAAAA",
"W. c #AEADAD",
"Q. c #B0AFAF",
"!. c #B2B1B1",
"~. c #B2B2B2",
"^. c #B3B2B2",
"/. c #C1C1C1",
"(. c gray81",
"). c gray93",
/* pixels */
"Z Z Z Z V O.Z Z Z Z Z Z Z Z Z Z Z Z V O.Z Z Z Z Z Z Z Z S #.Z Z ",
"Z Z Z Z O.^ Z Z Z Z Z V O.Z Z Z Z Z O.^ Z Z Z Z Z Z Z Z #.M.Z Z ",
"Z Z Z Z N g g g n O.O.J ^ S #.Z Z Z Z Z Z Z Z j g g g N Z Z Z Z ",
"Z S #.N c a a a i T ) ^ Z b %.g g g j Z Z Z j F a a a c N Z Z Z ",
"Z #.m.c d.).).).F.! E U g . . . . . + g j k F /.).).).d.g Z Z Z ",
"Z Z j F ~.(.).).).~.6.< * p p p p p u * > $.(.).).)./.~.o Z Z Z ",
"Z Z V H 3 5.~.).).).z.w p p 8.8.8.8.p p w z.).).).F.D ; Z Z Z Z ",
"Z Z O.Y 2 4.~.).).).z.w p 8.h.h.h.h.<.p w z.).).).F.D ; @.Z Z Z ",
"Z Z x Q z.~.).(.z.(.z.w p h.h.h.h.h.i.p w z.~.z.(.).F.z.v Z Z Z ",
"Z Z k D z.~.(.y.9 r.a w p 8.h.h.h.h.<.p w a $.; t.).F.z.; Z Z Z ",
"Z Z Z N g D ~ U ^ j h : p p >.>.>.>.p r @ 7 z O.j a c g Z Z Z Z ",
"Z Z Z Z Z k j Z Z Z #.&.. p p p p p r + 8 / ) ' O.7 N Z Z V O.Z ",
"Z Z Z S #.Z Z Z Z Z Z Z g . . . . . + j O._ } ;.) ) O.O.Z O.^ Z ",
"Z Z Z #.M.Z Z Z Z Z Z o   p p p p p w o O.' ;.;.[ } ' ' o.Z Z Z ",
"Z Z Z Z Z Z Z Z Z Z o V.9.p p p p p p w   , _ } | ;.-.-.( Z Z Z ",
"Z Z Z Z Z Z Z Z Z o l.W.^.^.f.p d f.^.W.l.# q =.;.;.] [ { ^ Z Z ",
"Z Z S #.Z Z Z V x y N.U.U.K.W.9.f.W.L.U.N.1.q.0 R ] ] ;.;.^ Z Z ",
"Z Z #.M.Z Z Z O.1 c.T.W.!.U.K.W.W.K.T.Q.T.7.l.1.9 ;.;.^ ` O.Z Z ",
"Z Z Z Z Z Z Z Z ; V.T.L.Y.Q.U.U.U.U.W.U.U.w.c.7.1 ^ ^ Z X.Z Z Z ",
"Z Z Z Z Z Z Z Z ; n.W.E.K.Y.R.R.R.R.U.P.E.w.V.w.o ; k Z Z Z Z Z ",
"Z Z Z Z Z Z Z Z ; a.H.W.R.R.R.R.R.R.R.E.I.3.V.w.$ w.5 k Z Z Z Z ",
"Z Z Z Z Z A +.Z ; 8.C.U.R.R.R.R.R.R.R.R.A.s V.w.0.^.:.- N Z Z Z ",
"Z V O.Z Z +.*.Z ; e s.S.K.K.K.K.K.K.K.S.s.e.v.G 2.j.,.Z.o Z Z Z ",
"Z O.^ Z Z Z Z Z k X 8.k.b.G.K.K.K.K.S.k.8.w.w.; j . D.^.  Z Z Z ",
"Z Z Z Z Z Z Z Z Z j 4 = = x.b.b.b.b.u.= q.p.6 C Z   9.9.  Z Z Z ",
"Z Z S #.Z Z Z A +.Z l L P = = = = = %   & 5 C *.o p ^.^.  Z Z Z ",
"Z Z #.M.Z Z Z +.*.Z O.' ;.-.] t ^.^.V.o Z Z Z o V.9.p . M O.Z Z ",
"Z Z Z Z Z Z Z Z Z Z Z O.^ ' ;.W t ^.p w       w D.^.^.t ..^ Z Z ",
"Z Z Z Z Z B  .Z Z Z Z Z Z O.^ K . 9.^.J.B.B.J.j.p p . g Z Z Z Z ",
"Z V O.Z Z  .I Z Z B  .Z Z Z Z Z j o > 0.g.0.0.w > O m Z Z Z Z Z ",
"Z O.^ Z Z Z Z Z Z  .I Z Z Z Z Z Z Z f o o o o o f +.*.Z Z Z Z Z ",
"Z Z Z Z Z Z Z Z Z Z Z Z Z Z Z Z Z Z Z Z Z Z Z Z Z Z Z Z Z Z Z Z "
};
