/* XPM */
static char *_9ca81c0fa2e47cf961169df90b04848TA7b1uvzrAPAx8pm[] = {
/* columns rows colors chars-per-pixel */
"32 32 36 1 ",
"  c #4B2A04",
". c #563104",
"X c #683B10",
"o c #044F26",
"O c #055027",
"+ c #135A33",
"@ c #076633",
"# c #0B6B39",
"$ c #156037",
"% c #166A30",
"& c #196D34",
"* c #12603A",
"= c #236434",
"- c #5C4014",
"; c #5F4916",
": c #504619",
"> c #71410F",
", c #6B4411",
"< c #7B512D",
"1 c #177849",
"2 c #257842",
"3 c #257B44",
"4 c #936037",
"5 c #D87D0D",
"6 c #F29F01",
"7 c #E79A1C",
"8 c #E89C1D",
"9 c #F4A100",
"0 c #FBC032",
"q c #FCC231",
"w c #FDC432",
"e c #FDC434",
"r c #FDC73A",
"t c #FFF28F",
"y c #FFF595",
"u c white",
/* pixels */
"XXXXXXXXXXXXXXXXXXXXXXXXXXXXXXXX",
"XXXXX@XXXXXXXXXXXXX@XXXXXXXXX4XX",
"XXXXXXXXXXXX@XXXXXXXXX@@XXXXXXXX",
"XXXXXXXXX@@@XX4XXXXXX@1$@XXXXXXX",
"XX4XXXX@@1$@XXXXXXXXX@1$1@XXXXXX",
"XXXXX@@$$11@XXXXXX4X@1$$1@XXXXXX",
"XXXX@111$$@XXXXXXXXX@1$11$@XXXXX",
"XXX@$$$111@XXXXXXXXX@1$1$$@XXXXX",
"XXX@11$$$@XXXXX@XXXXX@@1$11@XXXX",
"XXXX@@111@XXXXXXXXXXXXX@@1$@XXXX",
"XXXXXX@@@u4XXXXXXXXXXXXXX@@@XXXX",
"XXXXXXXXuuu99999999999,XXXXX@XXX",
"XXXXXXX99u958558855859999>XXXX@X",
"XXXX4X99885588588588558856>XXXXX",
"XXXXX9855885785885885885579;XXXX",
"XXX@999955857qwwwwe858559u99%-XX",
"XX@19ee999850yyyyyyr5859uuu93@XX",
"XX@$9e99q99eyyyyyyyyr99e9ue9=$@X",
"XXX@999ee9qyyyyyyyyyyr9ee99921@X",
"XXXX99ee99qyeeetyyyyyr99ee99&#:X",
"XXXX99e999qyyyyeetyyyr999e99;:XX",
"XXXXX999q9qyyyyyyetyyr9e999;XXXX",
"XXXXXX<9e9qyyyyyyyetyr9e9>XXXXXX",
"XX@XXXXX999euyyyyyyyr999.XX<XXXX",
"XXXXXXX    uuuyyyyyr      XXXXXX",
"XXXXXX     oueeeeee    <   XXXXX",
"XXX4XX  <  o**+++o         XXXXX",
"XXXXXXX     oo***o        XXX@XX",
"XXXXXXXX      ooo    O   XXXXXXX",
"XXXXXXOXX               XXXXXXXX",
"XX@XXXXXXXOX         XXXXX<XXXXX",
"XXXXXXXXXXXXXXXXXXXXXXXXXXXXXXXX"
};
