/* XPM */
static char *result[] = {
/* columns rows colors chars-per-pixel */
"32 32 9 1 ",
"  c #706F6F",
". c #A87D4A",
"X c #CA9A59",
"o c #70899B",
"O c #A69782",
"+ c #CBBB9F",
"@ c #87A4C1",
"# c #B0D8E9",
"$ c white",
/* pixels */
"  $                             ",
"                                ",
"$     $$$     $$$      $$$     $",
"                                ",
"                                ",
"     .......oooooooo.......@@@@@",
"  $  .......oooooooo.......@#@#@",
"  $  XXXXXXXooooooooXXXXXXX@@@@@",
"  $  X#X#X#X@@@@@@@@X#X#X#X@#@#@",
"     X#X#X#X@##@@##@X#X#X#X@@@@@",
"     XXXXXXX@@@@@@@@XXXXXXX@#@#@",
"     X#X#X#X@##@@##@OOOOOOO@@@@@",
"     XXXXXXX@@@@@@@@OOOOOOO@#@#@",
"     X#X#X#X@##@@##@OOOOOOO@@@@@",
"  $  XXXXXXX@@@@@@@@+++++++@#@#@",
"  $  .......@##@@##@+#+#+#+@@@@@",
"  $  .......@@@@@@@@+++++++@#@#@",
"     .......@##@@##@+#+#+#+@@@@@",
"     XXXXXXX@@@@@@@@+++++++@#@#@",
"     X##X##X@##@@##@+#+#+#+@@@@@",
"     XXXXXXX@@@@@@@@+++++++@#@#@",
"     X##X##X@##@@##@+#+#+#+@@@@@",
"     XXXXXXX@@@@@@@@+++++++@#@#@",
"  $  X##X##X@##@@##@+#+#+#+@@@@@",
"  $  XXXXXXX@@@@@@@@+++++++@@@@@",
"  $  X##X##X@##@@##@+#+#+#+@@@@@",
"     XXXXXXX@@@@@@@@+++++++@@@@@",
"                                ",
"                                ",
"$     $$$     $$$      $$$     $",
"                                ",
"  $                             "
};
