/* XPM */
static char *_e667f4e681346b1beba14c30c96d80dNTIpIEW1OqlX5nXf[] = {
/* columns rows colors chars-per-pixel */
"32 32 10 1 ",
"  c #A87D4A",
". c #AA8757",
"X c #CA9A59",
"o c #C6A573",
"O c #70899B",
"+ c #A69782",
"@ c #CBBB9F",
"# c #87A4C1",
"$ c #B7D1D7",
"% c #B0D8E9",
/* pixels */
"OOOOO+++++++.....++++++++++OOOOO",
"OOOOO+++++++ooooo++++++++++OOOOO",
"#####@@@@@@@o%o%o@@@@@@@@@@OOOOO",
"#%%%#@%%%%$@o%o%o@%%@%%@%%@#####",
"#####@@@@@@@ooooo@@@@@@@@@@#%#%#",
"#%%%#       OOOOOOOO       #####",
"#####       OOOOOOOO       #%#%#",
"#%%%#XXXXXXXOOOOOOOOXXXXXXX#####",
"#####X%X%X%X########X%X%X%X#%#%#",
"#%%%#X%X%X%X#%%##%%#X%X%X%X#####",
"#####XXXXXXX########XXXXXXX#%#%#",
"+++++X%X%X%X#%%##%%#+++++++#####",
"+++++XXXXXXX########+++++++#%#%#",
"+++++X%X%X%X#%%##%%#+++++++#####",
"@@@@@XXXXXXX########@@@@@@@#%#%#",
"@%%%@       #%%##%%#@%@%@%@#####",
"@@@@@       ########@@@@@@@#%#%#",
"@%%%@       #%%##%%#@%@%@%@#####",
"@@@@@XXXXXXX########@@@@@@@#%#%#",
"@%%%@X%%X%%X#%%##%%#@%@%@%@#####",
"@@@@@XXXXXXX########@@@@@@@#%#%#",
"@%%%@X%%X%%X#%%##%%#@%@%@%@#####",
"@@@@@XXXXXXX########@@@@@@@#%#%#",
"@%%%@X%%X%%X#%%##%%#@%@%@%@#####",
"@@@@@XXXXXXX########@@@@@@@#####",
"@%%%@X%%X%%X#%%##%%#@%@%@%@#####",
"@@@@@XXXXXXX########@@@@@@@#####",
"@%%%@.......++++++++OOOOOOO.....",
"@@@@@.......++++++++OOOOOOOooooo",
"@%%%@ooooooo@@@@@@@@#######o%o%o",
"@@@@@o%%o%%o@%%%%%%@#%%%%%#o%o%o",
"@@@@@ooooooo@@@@@@@@#######ooooo"
};
